<svg width="53" height="51" viewBox="0 0 53 51" fill="none" xmlns="http://www.w3.org/2000/svg">
<path d="M22.7423 40.9474C19.7786 34.633 14.9061 30.7974 10.5243 28.5296C10.4864 28.51 10.3986 28.4344 10.4 28.2385C10.4015 28.0428 10.4899 27.9701 10.527 27.9517C17.6329 24.4215 20.9488 19.5612 22.7605 15.4887L21.4814 14.9197L22.7605 15.4887C22.7736 15.4593 22.8348 15.3718 23.0223 15.3656C23.1065 15.3628 23.1735 15.382 23.2139 15.4033C23.2473 15.4208 23.2622 15.438 23.2739 15.4608L24.3796 14.895L23.2739 15.4608C26.5241 21.8134 30.475 25.2586 35.9297 28.0374C35.9587 28.0522 35.9702 28.0663 35.9791 28.082C35.9911 28.1032 36.0034 28.1401 36.003 28.1887C36.0026 28.2374 35.9896 28.2778 35.9741 28.3044C35.9617 28.3259 35.9453 28.3438 35.913 28.3601C29.0412 31.8433 25.7593 36.2012 23.3058 41.0202C23.298 41.0355 23.2888 41.048 23.2586 41.0635C23.2202 41.0832 23.1507 41.1034 23.058 41.0995C22.8483 41.0908 22.7617 40.9888 22.7423 40.9474ZM38.2076 17.9473C37.1065 16.1803 35.654 14.9283 34.2312 14.0524C36.1964 12.8881 37.4189 11.489 38.2174 10.1578C39.329 11.8928 40.6293 13.0767 42.2151 14.0225C40.3143 15.1697 39.1133 16.5042 38.2076 17.9473Z" stroke="#00E0FF" stroke-width="2.8" stroke-linejoin="round"/>
</svg>
