<svg width="36" height="35" viewBox="0 0 36 35" fill="none" xmlns="http://www.w3.org/2000/svg">
<path d="M24.0001 4.375H12.3334C9.62599 4.375 7.02947 5.45052 5.11503 7.36495C3.2006 9.27939 2.12508 11.8759 2.12508 14.5833V23.3333C2.12326 25.1416 2.79341 26.886 4.00542 28.228C5.21743 29.5699 6.88483 30.4137 8.68394 30.5954C10.483 30.7771 12.2855 30.2839 13.7414 29.2114C15.1973 28.1389 16.2027 26.5638 16.5626 24.7917H19.7709C20.1308 26.5638 21.1362 28.1389 22.5921 29.2114C24.048 30.2839 25.8504 30.7771 27.6496 30.5954C29.4487 30.4137 31.1161 29.5699 32.3281 28.228C33.5401 26.886 34.2102 25.1416 34.2084 23.3333V14.5833C34.2084 11.8759 33.1329 9.27939 31.2185 7.36495C29.304 5.45052 26.7075 4.375 24.0001 4.375ZM31.2917 23.3333C31.2917 24.4937 30.8308 25.6065 30.0103 26.4269C29.1899 27.2474 28.0771 27.7083 26.9167 27.7083C25.7564 27.7083 24.6436 27.2474 23.8232 26.4269C23.0027 25.6065 22.5417 24.4937 22.5417 23.3333C22.5417 22.9466 22.3881 22.5756 22.1146 22.3021C21.8411 22.0286 21.4702 21.875 21.0834 21.875H15.2501C14.8633 21.875 14.4924 22.0286 14.2189 22.3021C13.9454 22.5756 13.7917 22.9466 13.7917 23.3333C13.7917 24.4937 13.3308 25.6065 12.5103 26.4269C11.6899 27.2474 10.5771 27.7083 9.41675 27.7083C8.25642 27.7083 7.14363 27.2474 6.32315 26.4269C5.50268 25.6065 5.04175 24.4937 5.04175 23.3333V14.5833C5.04175 12.6495 5.80997 10.7948 7.17743 9.42735C8.54488 8.05989 10.3995 7.29167 12.3334 7.29167H24.0001C25.934 7.29167 27.7886 8.05989 29.1561 9.42735C30.5235 10.7948 31.2917 12.6495 31.2917 14.5833V23.3333Z" fill="url(#paint0_linear_4603_8666)"/>
<path d="M25.4584 14.5833C26.2638 14.5833 26.9167 13.9304 26.9167 13.125C26.9167 12.3196 26.2638 11.6667 25.4584 11.6667C24.653 11.6667 24.0001 12.3196 24.0001 13.125C24.0001 13.9304 24.653 14.5833 25.4584 14.5833Z" fill="url(#paint1_linear_4603_8666)"/>
<path d="M25.4584 20.4167C26.2638 20.4167 26.9167 19.7637 26.9167 18.9583C26.9167 18.1529 26.2638 17.5 25.4584 17.5C24.653 17.5 24.0001 18.1529 24.0001 18.9583C24.0001 19.7637 24.653 20.4167 25.4584 20.4167Z" fill="url(#paint2_linear_4603_8666)"/>
<path d="M28.3751 17.5C29.1805 17.5 29.8334 16.8471 29.8334 16.0417C29.8334 15.2363 29.1805 14.5833 28.3751 14.5833C27.5697 14.5833 26.9167 15.2363 26.9167 16.0417C26.9167 16.8471 27.5697 17.5 28.3751 17.5Z" fill="url(#paint3_linear_4603_8666)"/>
<path d="M22.5417 17.5C23.3472 17.5 24.0001 16.8471 24.0001 16.0417C24.0001 15.2363 23.3472 14.5833 22.5417 14.5833C21.7363 14.5833 21.0834 15.2363 21.0834 16.0417C21.0834 16.8471 21.7363 17.5 22.5417 17.5Z" fill="url(#paint4_linear_4603_8666)"/>
<path d="M15.2501 16.0417C15.2501 17.6525 13.9442 18.9583 12.3334 18.9583C10.7226 18.9583 9.41674 17.6525 9.41674 16.0417C9.41674 14.4308 10.7226 13.125 12.3334 13.125C13.9442 13.125 15.2501 14.4308 15.2501 16.0417Z" fill="url(#paint5_linear_4603_8666)"/>
<defs>
<linearGradient id="paint0_linear_4603_8666" x1="2.12508" y1="4.375" x2="27.8639" y2="35.8248" gradientUnits="userSpaceOnUse">
<stop stop-color="#01FEA8"/>
<stop offset="0.510417" stop-color="#46A5FF"/>
<stop offset="1" stop-color="#D632FF"/>
</linearGradient>
<linearGradient id="paint1_linear_4603_8666" x1="2.12508" y1="4.375" x2="27.8639" y2="35.8248" gradientUnits="userSpaceOnUse">
<stop stop-color="#01FEA8"/>
<stop offset="0.510417" stop-color="#46A5FF"/>
<stop offset="1" stop-color="#D632FF"/>
</linearGradient>
<linearGradient id="paint2_linear_4603_8666" x1="2.12508" y1="4.375" x2="27.8639" y2="35.8248" gradientUnits="userSpaceOnUse">
<stop stop-color="#01FEA8"/>
<stop offset="0.510417" stop-color="#46A5FF"/>
<stop offset="1" stop-color="#D632FF"/>
</linearGradient>
<linearGradient id="paint3_linear_4603_8666" x1="2.12508" y1="4.375" x2="27.8639" y2="35.8248" gradientUnits="userSpaceOnUse">
<stop stop-color="#01FEA8"/>
<stop offset="0.510417" stop-color="#46A5FF"/>
<stop offset="1" stop-color="#D632FF"/>
</linearGradient>
<linearGradient id="paint4_linear_4603_8666" x1="2.12508" y1="4.375" x2="27.8639" y2="35.8248" gradientUnits="userSpaceOnUse">
<stop stop-color="#01FEA8"/>
<stop offset="0.510417" stop-color="#46A5FF"/>
<stop offset="1" stop-color="#D632FF"/>
</linearGradient>
<linearGradient id="paint5_linear_4603_8666" x1="2.12508" y1="4.375" x2="27.8639" y2="35.8248" gradientUnits="userSpaceOnUse">
<stop stop-color="#01FEA8"/>
<stop offset="0.510417" stop-color="#46A5FF"/>
<stop offset="1" stop-color="#D632FF"/>
</linearGradient>
</defs>
</svg>
