<svg width="61" height="61" viewBox="0 0 61 61" fill="none" xmlns="http://www.w3.org/2000/svg">
<path d="M36.3333 17.375H24.6667C21.9593 17.375 19.3627 18.4505 17.4483 20.365C15.5339 22.2794 14.4583 24.8759 14.4583 27.5833V36.3333C14.4565 38.1416 15.1267 39.886 16.3387 41.228C17.5507 42.5699 19.2181 43.4137 21.0172 43.5954C22.8163 43.7771 24.6188 43.2839 26.0747 42.2114C27.5306 41.1389 28.536 39.5638 28.8958 37.7917H32.1042C32.464 39.5638 33.4695 41.1389 34.9254 42.2114C36.3813 43.2839 38.1837 43.7771 39.9828 43.5954C41.7819 43.4137 43.4493 42.5699 44.6613 41.228C45.8734 39.886 46.5435 38.1416 46.5417 36.3333V27.5833C46.5417 24.8759 45.4662 22.2794 43.5517 20.365C41.6373 18.4505 39.0408 17.375 36.3333 17.375ZM43.625 36.3333C43.625 37.4937 43.1641 38.6065 42.3436 39.4269C41.5231 40.2474 40.4103 40.7083 39.25 40.7083C38.0897 40.7083 36.9769 40.2474 36.1564 39.4269C35.3359 38.6065 34.875 37.4937 34.875 36.3333C34.875 35.9466 34.7214 35.5756 34.4479 35.3021C34.1744 35.0286 33.8035 34.875 33.4167 34.875H27.5833C27.1966 34.875 26.8256 35.0286 26.5522 35.3021C26.2787 35.5756 26.125 35.9466 26.125 36.3333C26.125 37.4937 25.6641 38.6065 24.8436 39.4269C24.0231 40.2474 22.9103 40.7083 21.75 40.7083C20.5897 40.7083 19.4769 40.2474 18.6564 39.4269C17.836 38.6065 17.375 37.4937 17.375 36.3333V27.5833C17.375 25.6495 18.1432 23.7948 19.5107 22.4273C20.8781 21.0599 22.7328 20.2917 24.6667 20.2917H36.3333C38.2672 20.2917 40.1219 21.0599 41.4893 22.4273C42.8568 23.7948 43.625 25.6495 43.625 27.5833V36.3333Z" fill="#01FEA8"/>
<path d="M37.7917 27.5833C38.5971 27.5833 39.25 26.9304 39.25 26.125C39.25 25.3196 38.5971 24.6667 37.7917 24.6667C36.9863 24.6667 36.3333 25.3196 36.3333 26.125C36.3333 26.9304 36.9863 27.5833 37.7917 27.5833Z" fill="#01FEA8"/>
<path d="M37.7917 33.4167C38.5971 33.4167 39.25 32.7637 39.25 31.9583C39.25 31.1529 38.5971 30.5 37.7917 30.5C36.9863 30.5 36.3333 31.1529 36.3333 31.9583C36.3333 32.7637 36.9863 33.4167 37.7917 33.4167Z" fill="#01FEA8"/>
<path d="M40.7083 30.5C41.5138 30.5 42.1667 29.8471 42.1667 29.0417C42.1667 28.2363 41.5138 27.5833 40.7083 27.5833C39.9029 27.5833 39.25 28.2363 39.25 29.0417C39.25 29.8471 39.9029 30.5 40.7083 30.5Z" fill="#01FEA8"/>
<path d="M34.875 30.5C35.6804 30.5 36.3333 29.8471 36.3333 29.0417C36.3333 28.2363 35.6804 27.5833 34.875 27.5833C34.0696 27.5833 33.4167 28.2363 33.4167 29.0417C33.4167 29.8471 34.0696 30.5 34.875 30.5Z" fill="#01FEA8"/>
<path d="M27.5833 29.0417C27.5833 30.6525 26.2775 31.9583 24.6667 31.9583C23.0558 31.9583 21.75 30.6525 21.75 29.0417C21.75 27.4308 23.0558 26.125 24.6667 26.125C26.2775 26.125 27.5833 27.4308 27.5833 29.0417Z" fill="#01FEA8"/>
</svg>
