<svg width="51" height="50" viewBox="0 0 51 50" fill="none" xmlns="http://www.w3.org/2000/svg">
<path d="M25.4946 28.5136C27.5351 28.5136 29.1893 26.9405 29.1893 25C29.1893 23.0595 27.5351 21.4865 25.4946 21.4865C23.4541 21.4865 21.8 23.0595 21.8 25C21.8 26.9405 23.4541 28.5136 25.4946 28.5136Z" stroke="#DC1FFF" stroke-width="1.6" stroke-miterlimit="10" stroke-linecap="round"/>
<path d="M25.4946 15.1047C27.5351 15.1047 29.1893 13.5316 29.1893 11.5911C29.1893 9.65065 27.5351 8.07758 25.4946 8.07758C23.4541 8.07758 21.8 9.65065 21.8 11.5911C21.8 13.5316 23.4541 15.1047 25.4946 15.1047Z" stroke="#DC1FFF" stroke-width="1.6" stroke-miterlimit="10" stroke-linecap="round"/>
<path d="M25.4946 41.9327C27.5351 41.9327 29.1893 40.3596 29.1893 38.4191C29.1893 36.4787 27.5351 34.9056 25.4946 34.9056C23.4541 34.9056 21.8 36.4787 21.8 38.4191C21.8 40.3596 23.4541 41.9327 25.4946 41.9327Z" stroke="#DC1FFF" stroke-width="1.6" stroke-miterlimit="10" stroke-linecap="round"/>
<path d="M14.7338 21.7221C16.7743 21.7221 18.4285 20.149 18.4285 18.2085C18.4285 16.268 16.7743 14.6949 14.7338 14.6949C12.6933 14.6949 11.0392 16.268 11.0392 18.2085C11.0392 20.149 12.6933 21.7221 14.7338 21.7221Z" stroke="#DC1FFF" stroke-width="1.6" stroke-miterlimit="10" stroke-linecap="round"/>
<path d="M14.7338 35.3051C16.7743 35.3051 18.4285 33.732 18.4285 31.7915C18.4285 29.851 16.7743 28.278 14.7338 28.278C12.6933 28.278 11.0392 29.851 11.0392 31.7915C11.0392 33.732 12.6933 35.3051 14.7338 35.3051Z" stroke="#DC1FFF" stroke-width="1.6" stroke-miterlimit="10" stroke-linecap="round"/>
<path d="M36.2662 21.7221C38.3067 21.7221 39.9609 20.149 39.9609 18.2085C39.9609 16.268 38.3067 14.6949 36.2662 14.6949C34.2257 14.6949 32.5716 16.268 32.5716 18.2085C32.5716 20.149 34.2257 21.7221 36.2662 21.7221Z" stroke="#DC1FFF" stroke-width="1.6" stroke-miterlimit="10" stroke-linecap="round"/>
<path d="M36.2662 35.3051C38.3067 35.3051 39.9609 33.732 39.9609 31.7915C39.9609 29.851 38.3067 28.278 36.2662 28.278C34.2257 28.278 32.5716 29.851 32.5716 31.7915C32.5716 33.732 34.2257 35.3051 36.2662 35.3051Z" stroke="#DC1FFF" stroke-width="1.6" stroke-miterlimit="10" stroke-linecap="round"/>
<path d="M28.7584 13.2198L33.1317 16.3646" stroke="#DC1FFF" stroke-width="1.6" stroke-miterlimit="10" stroke-linecap="round"/>
<path d="M22.2093 13.2198L17.836 16.3646" stroke="#DC1FFF" stroke-width="1.6" stroke-miterlimit="10" stroke-linecap="round"/>
<path d="M28.7584 26.7107L33.1317 29.8555" stroke="#DC1FFF" stroke-width="1.6" stroke-miterlimit="10" stroke-linecap="round"/>
<path d="M22.2093 26.7107L17.836 29.8555" stroke="#DC1FFF" stroke-width="1.6" stroke-miterlimit="10" stroke-linecap="round"/>
<path d="M22.2093 23.2893L17.836 20.1445" stroke="#DC1FFF" stroke-width="1.6" stroke-miterlimit="10" stroke-linecap="round"/>
<path d="M28.7584 23.2893L33.1317 20.1445" stroke="#DC1FFF" stroke-width="1.6" stroke-miterlimit="10" stroke-linecap="round"/>
<path d="M22.2093 36.8723L17.836 33.7275" stroke="#DC1FFF" stroke-width="1.6" stroke-miterlimit="10" stroke-linecap="round"/>
<path d="M28.7584 36.8723L33.1317 33.7275" stroke="#DC1FFF" stroke-width="1.6" stroke-miterlimit="10" stroke-linecap="round"/>
</svg>
