<svg width="32" height="35" viewBox="0 0 32 35" fill="none" xmlns="http://www.w3.org/2000/svg">
<g clip-path="url(#clip0_4598_8431)">
<path d="M15.4652 0.0154221C16.5348 -0.0617176 17.5966 0.156845 18.5882 0.529687C22.1536 2.58675 25.7181 4.6438 29.2834 6.70086C30.821 7.85367 31.8297 9.59189 32 11.5221V23.5216C31.7442 25.7501 30.7097 27.382 28.8556 28.6C25.6471 30.4573 22.4385 32.3138 19.2299 34.1712C17.3921 35.1757 15.2 35.2751 13.2834 34.4283C9.7754 32.3995 6.26738 30.3716 2.75936 28.3428C1.17818 27.1986 0.18738 25.4287 0 23.4788V11.5649C0.218182 9.2919 1.44 7.41312 3.40107 6.27231C6.56684 4.4441 9.73262 2.61503 12.8984 0.786819C13.6274 0.423405 14.6524 0.0745625 15.4652 0.0154221ZM15.893 2.50103C15.2291 2.51732 14.5557 2.76588 13.9679 3.05816C10.7594 4.91551 7.5508 6.772 4.34225 8.62936C3.3215 9.36904 2.7893 10.1996 2.52406 11.4364V23.5645C2.70374 24.5201 3.19658 25.4904 3.95722 26.1144C4.62545 26.6629 7.43444 28.0806 8.4492 28.7714C8.64856 28.7928 8.89155 27.9529 8.98396 27.7643C13.0498 19.4255 20.2464 13.838 29.4545 12.3578C29.4759 12.3218 29.4973 12.2866 29.5187 12.2506C29.4982 10.7387 28.9857 9.63132 27.7861 8.71507L18.0321 3.05816C17.3921 2.72217 16.6237 2.48304 15.893 2.50103ZM29.2834 14.8862C21.7968 16.2336 15.0486 21.21 11.6364 28.0214C11.5114 28.2708 10.7388 29.9533 10.7807 30.0785C13.3245 31.4361 15.2684 33.59 18.246 31.857C19.9487 30.7076 27.1042 26.8883 28.0428 26.1144C28.7512 25.5298 29.3459 24.5227 29.4759 23.6073C29.6693 22.2445 29.4186 16.8927 29.5187 14.9505C29.44 14.9291 29.3621 14.9077 29.2834 14.8862Z" fill="url(#paint0_linear_4598_8431)"/>
<path d="M10.5026 8.32928C13.8763 8.24614 16.0975 11.8923 14.4599 14.8647C12.9266 17.6478 8.87784 17.8466 7.0588 15.2504C5.07976 12.4263 7.06222 8.41413 10.5026 8.32928ZM10.3315 10.8577C9.80447 10.9246 9.15762 11.4269 8.94115 11.9077C8.13003 13.7102 10.2323 15.3884 11.7861 14.2005C13.2406 13.0888 12.3277 10.604 10.3315 10.8577Z" fill="url(#paint1_linear_4598_8431)"/>
</g>
<defs>
<linearGradient id="paint0_linear_4598_8431" x1="0" y1="0" x2="34.8603" y2="31.8719" gradientUnits="userSpaceOnUse">
<stop stop-color="#01FEA8"/>
<stop offset="0.510417" stop-color="#46A5FF"/>
<stop offset="1" stop-color="#D632FF"/>
</linearGradient>
<linearGradient id="paint1_linear_4598_8431" x1="6.27277" y1="8.32788" x2="15.0256" y2="17.0655" gradientUnits="userSpaceOnUse">
<stop stop-color="#01FEA8"/>
<stop offset="0.510417" stop-color="#46A5FF"/>
<stop offset="1" stop-color="#D632FF"/>
</linearGradient>
<clipPath id="clip0_4598_8431">
<rect width="32" height="35" fill="white"/>
</clipPath>
</defs>
</svg>
