<svg width="111" height="81" viewBox="0 0 111 81" fill="none" xmlns="http://www.w3.org/2000/svg">
<g clip-path="url(#clip0_4565_8687)">
<path d="M25.1764 38.854C27.4371 40.0749 29.7799 41.2416 31.9768 42.3179C32.6057 42.6254 33.2439 42.9238 33.882 43.2223L54.912 31.1483L77.2913 44.0001C79.6431 45.3477 81.0925 47.8529 81.0925 50.5481V51.136C81.0925 53.8402 79.6431 56.3364 77.2913 57.684L74.912 59.0497C77.1363 59.7099 79.5064 60.343 82.15 60.9851C83.5994 61.3288 84.9576 61.6182 86.2521 61.8715C88.768 58.905 90.2174 55.1064 90.2174 51.1269V29.7826C90.2174 23.8586 87.0087 18.3326 81.8491 15.3661L63.2712 4.69395C63.1345 4.61255 62.9795 4.55828 62.8428 4.48593L54.9212 0L47.1728 4.41358C46.9722 4.52211 46.7534 4.60351 46.5529 4.71204L27.9749 15.3842C22.8154 18.3507 19.6067 23.8677 19.6067 29.8007V35.6523C21.3113 36.7014 23.1527 37.7686 25.1764 38.854ZM28.7315 29.8007C28.7315 27.0965 30.181 24.6003 32.5328 23.2527L54.912 10.4008L77.2913 23.2527C79.6431 24.6003 81.0925 27.1055 81.0925 29.8007V35.7066L63.2712 25.4685C63.1345 25.3871 62.9795 25.3328 62.8428 25.2605L54.912 20.7565L47.1636 25.1701C46.9631 25.2786 46.7443 25.36 46.5438 25.4685L28.7224 35.7066V29.8007H28.7315Z" fill="white"/>
<path d="M60.9649 67.0629L54.9212 70.5358L32.5419 57.6931C30.8099 56.6982 29.5702 55.0883 29.0324 53.2252C25.8601 51.3531 22.7972 49.3814 19.8892 47.3193C19.7981 47.256 19.7069 47.1837 19.6158 47.1204V52.7187C19.6158 52.7187 19.6887 52.773 19.7252 52.8092C20.263 58.091 23.3077 62.8663 27.9749 65.5525L38.5492 71.6211L38.5948 71.6483L46.562 76.2247C46.6167 76.2608 46.6805 76.2789 46.7443 76.3151L54.9303 81L63.0615 76.3422C63.1345 76.297 63.2165 76.2699 63.2985 76.2247L73.7361 70.2283C69.5155 69.3963 65.2584 68.3471 60.9831 67.0629H60.9649Z" fill="white"/>
<path d="M26.2156 13.91C26.644 13.9553 27.0634 14.0095 27.4918 14.0638C27.0725 14.0095 26.644 13.9553 26.2156 13.91Z" fill="black"/>
<path d="M15.2584 15.3118C15.5228 15.3118 15.7872 15.3118 16.0424 15.3299C15.778 15.3209 15.5137 15.3209 15.2584 15.3118Z" fill="black"/>
<path d="M2.36873 21.1635C2.36873 21.4438 2.40519 21.7242 2.45077 22.0046C2.40519 21.7242 2.37784 21.4438 2.36873 21.1635Z" fill="black"/>
<path d="M97.3824 65.8419C97.8382 65.8419 98.294 65.8419 98.7498 65.8148C98.294 65.8328 97.8382 65.8419 97.3824 65.8419Z" fill="black"/>
<path d="M28.057 14.1361C28.6677 14.2175 29.2785 14.2989 29.8801 14.3893C29.2694 14.2989 28.6586 14.2175 28.057 14.1361Z" fill="black"/>
<path d="M25.1764 38.854C27.4371 40.0749 29.7799 41.2416 31.9768 42.3179C32.6057 42.6254 33.2439 42.9238 33.882 43.2223L54.912 31.1483L77.2913 44.0001C79.6431 45.3477 81.0925 47.8529 81.0925 50.5481V51.136C81.0925 53.8402 79.6431 56.3364 77.2913 57.684L74.912 59.0497C77.1363 59.7099 79.5064 60.343 82.15 60.9851C83.5994 61.3288 84.9576 61.6182 86.2521 61.8715C88.768 58.905 90.2174 55.1064 90.2174 51.1269V29.7826C90.2174 23.8586 87.0087 18.3326 81.8491 15.3661L63.2712 4.69395C63.1345 4.61255 62.9795 4.55828 62.8428 4.48593L54.9212 0L47.1728 4.41358C46.9722 4.52211 46.7534 4.60351 46.5529 4.71204L27.9749 15.3842C22.8154 18.3507 19.6067 23.8677 19.6067 29.8007V35.6523C21.3113 36.7014 23.1527 37.7686 25.1764 38.854ZM28.7315 29.8007C28.7315 27.0965 30.181 24.6003 32.5328 23.2527L54.912 10.4008L77.2913 23.2527C79.6431 24.6003 81.0925 27.1055 81.0925 29.8007V35.7066L63.2712 25.4685C63.1345 25.3871 62.9795 25.3328 62.8428 25.2605L54.912 20.7565L47.1636 25.1701C46.9631 25.2786 46.7443 25.36 46.5438 25.4685L28.7224 35.7066V29.8007H28.7315Z" fill="white"/>
<path d="M54.9212 20.7565L49.9622 23.5783L54.9212 20.7565L62.8519 25.2605L54.9212 20.7565Z" fill="url(#paint0_linear_4565_8687)"/>
<path d="M27.9749 15.3933C27.3368 15.755 26.7352 16.162 26.1609 16.6052C26.7352 16.162 27.3368 15.7641 27.9749 15.3933Z" fill="url(#paint1_linear_4565_8687)"/>
<path d="M109.461 56.463C108.85 55.1697 108.121 53.9578 107.3 52.8544C105.669 50.6205 103.763 48.685 101.794 46.849C98.9959 44.2714 96.0242 41.9199 92.943 39.7312V44.2443C95.2675 45.7999 97.5283 47.455 99.6613 49.2367C101.603 50.8918 103.472 52.6373 105.021 54.5818C105.805 55.5405 106.48 56.5625 107.036 57.6117C107.583 58.6608 107.948 59.7642 107.984 60.8043C108.075 62.9387 106.197 64.3134 103.973 65.0098C102.861 65.3625 101.658 65.5977 100.427 65.7062C99.1964 65.8328 97.9385 65.8509 96.6805 65.8419C93.5629 65.7695 90.4271 65.3897 87.3095 64.838H87.3004L85.7233 64.5395C85.6322 64.5214 85.541 64.5033 85.4499 64.4853C85.3314 64.4581 85.2037 64.44 85.0852 64.4129C84.5747 64.3044 84.0551 64.1958 83.5264 64.0873C83.417 64.0602 83.3077 64.0421 83.1891 64.015C82.6695 63.8974 82.1317 63.7798 81.5757 63.6441C81.5574 63.6441 81.5483 63.6441 81.5301 63.6351C81.5301 63.6351 81.521 63.6351 81.5118 63.6351C80.2539 63.3276 79.0506 63.0201 77.902 62.7126C77.8564 62.7035 77.8017 62.6855 77.7561 62.6764C76.5073 62.3418 75.304 62.0071 74.1463 61.6635H74.1098C74.1098 61.6635 74.0825 61.6454 74.0734 61.6454C74.046 61.6454 74.0096 61.6273 73.9822 61.6182L68.0934 59.8727L68.1937 59.8184C67.6923 59.6556 67.191 59.5019 66.6987 59.3301C61.7944 57.7202 56.954 55.9113 52.1408 54.0301C47.3277 52.1489 42.5784 50.123 37.8473 48.0248C36.5711 47.455 35.304 46.8762 34.0369 46.2883L32.7516 45.6914C32.1226 45.402 31.4936 45.1035 30.8555 44.787C30.8373 44.787 30.8282 44.7779 30.8099 44.7689C30.8099 44.7689 30.8099 44.7689 30.8008 44.7689C29.6796 44.2172 28.531 43.6474 27.3642 43.0595C27.3459 43.0595 27.3277 43.0414 27.3095 43.0324C26.17 42.4536 25.0305 41.8657 23.9002 41.2597C23.3532 40.9703 22.8336 40.6809 22.314 40.3915C22.1226 40.2829 21.9312 40.1744 21.7306 40.0659C21.4025 39.885 21.0834 39.6951 20.7644 39.5142C20.5182 39.3785 20.2812 39.2338 20.0442 39.0891C19.7799 38.9353 19.5155 38.7726 19.2511 38.6188C19.005 38.465 18.7498 38.3203 18.5036 38.1666C18.4034 38.1033 18.3031 38.049 18.2028 37.9857L16.9175 37.1898V37.1717C14.8391 35.8422 12.8245 34.4313 10.9102 32.9029C8.91385 31.293 7.00866 29.5655 5.4134 27.612C4.60209 26.6443 3.91841 25.6042 3.35323 24.5279C2.78806 23.4516 2.42342 22.303 2.39608 21.1906C2.37785 20.0782 2.77894 19.0562 3.54466 18.2512C4.30127 17.4463 5.37693 16.8494 6.52552 16.4424C7.68322 16.0263 8.91385 15.746 10.1718 15.5922C11.4298 15.4204 12.706 15.348 13.9913 15.3299C16.562 15.3028 19.1509 15.538 21.7124 15.8816C22.0588 15.9269 22.3961 15.9811 22.7334 16.0354C23.5538 15.2395 24.438 14.5069 25.3952 13.8557C21.5939 13.4397 17.7744 13.2226 13.9275 13.3854C12.5875 13.4668 11.2384 13.5573 9.89836 13.7834C8.55834 13.9914 7.2092 14.2899 5.89653 14.7782C4.59298 15.2757 3.28031 15.9359 2.22288 17.0303C1.1381 18.0703 0.499997 19.644 0.499997 21.1635C0.490881 22.6829 0.94667 24.0847 1.52096 25.3509C2.11349 26.6262 2.84275 27.8019 3.63582 28.9053C4.0278 29.4661 4.45624 29.9906 4.87557 30.5242C5.32224 31.0307 5.74157 31.5643 6.19735 32.0617C6.65314 32.5592 7.09981 33.0657 7.57383 33.536C8.03874 34.0243 8.52188 34.4946 8.9959 34.9649C10.9102 36.8461 12.9521 38.5917 15.0305 40.2739C17.1089 41.9561 19.242 43.575 21.4389 45.1125C25.8054 48.1966 30.3724 51.0003 35.0761 53.5418C39.789 56.0651 44.6477 58.3081 49.6158 60.2707C59.5428 64.2049 69.9075 67.1533 80.5638 68.6637C85.8965 69.3872 91.2931 69.8123 96.7716 69.4505C98.139 69.342 99.5155 69.1973 100.883 68.926C102.25 68.6727 103.627 68.32 104.985 67.7774C106.325 67.2257 107.683 66.475 108.768 65.2721C109.871 64.0873 110.454 62.387 110.482 60.8133C110.5 59.2306 110.044 57.7654 109.452 56.4721L109.461 56.463Z" fill="white"/>
</g>
<defs>
<linearGradient id="paint0_linear_4565_8687" x1="54.4836" y1="20.7474" x2="58.1479" y2="27.8617" gradientUnits="userSpaceOnUse">
<stop stop-color="#BEBEBE"/>
<stop offset="0.48" stop-color="#03E1FF"/>
<stop offset="0.94" stop-color="#DC1FFF"/>
</linearGradient>
<linearGradient id="paint1_linear_4565_8687" x1="27.8655" y1="15.3209" x2="28.0276" y2="15.6385" gradientUnits="userSpaceOnUse">
<stop stop-color="#BEBEBE"/>
<stop offset="0.48" stop-color="#03E1FF"/>
<stop offset="0.94" stop-color="#DC1FFF"/>
</linearGradient>
<clipPath id="clip0_4565_8687">
<rect width="110" height="81" fill="white" transform="translate(0.5)"/>
</clipPath>
</defs>
</svg>
