<svg width="51" height="50" viewBox="0 0 51 50" fill="none" xmlns="http://www.w3.org/2000/svg">
<g clip-path="url(#clip0_4635_26366)">
<path d="M33.0251 22.0671C36.352 22.0671 39.0588 19.3606 39.0588 16.0334C39.0588 12.7065 36.352 10 33.0251 10C29.6981 10 26.9914 12.7065 26.9914 16.0334C26.9914 19.3606 29.6981 22.0671 33.0251 22.0671ZM33.0251 12.25C35.1113 12.25 36.8088 13.9471 36.8088 16.0334C36.8088 18.1198 35.1113 19.8171 33.0251 19.8171C30.9388 19.8171 29.2414 18.1197 29.2414 16.0334C29.2414 13.9471 30.9388 12.25 33.0251 12.25ZM33.0251 22.186C28.714 22.186 25.0107 24.8076 23.406 28.5375C21.8199 27.5699 19.9645 27.0022 17.9746 27.0022C12.1989 27.0022 7.5 31.701 7.5 37.4771V39.3186C7.5 39.9399 8.00374 40.4436 8.62498 40.4436H27.3245C27.9458 40.4436 28.4495 39.9399 28.4495 39.3186V37.4771C28.4495 36.8448 28.3837 36.229 28.2759 35.6275H42.375C42.9963 35.6275 43.5 35.1238 43.5 34.5025V32.6607C43.5 26.8849 38.8009 22.186 33.0251 22.186ZM26.1996 38.1936H9.75001V37.4771C9.75001 32.9416 13.4395 29.2521 17.9746 29.2521C22.5098 29.2521 26.1995 32.9416 26.1995 37.4771L26.1996 38.1936ZM41.25 33.3775H27.6125C27.0615 32.0871 26.2557 30.933 25.2632 29.9693C26.3807 26.7533 29.4335 24.436 33.0251 24.436C37.5602 24.436 41.25 28.1255 41.25 32.6607V33.3775Z" fill="#46A5FF"/>
<path d="M17.9751 26.8835C21.302 26.8835 24.0088 24.1768 24.0088 20.8498C24.0088 17.5229 21.3021 14.8161 17.9751 14.8161C14.6481 14.8161 11.9414 17.5229 11.9414 20.8498C11.9414 24.1768 14.6482 26.8835 17.9751 26.8835ZM17.9751 17.0661C20.0614 17.0661 21.7588 18.7635 21.7588 20.8498C21.7588 22.9361 20.0614 24.6335 17.9751 24.6335C15.8888 24.6335 14.1914 22.9361 14.1914 20.8498C14.1914 18.7635 15.8888 17.0661 17.9751 17.0661Z" fill="#46A5FF"/>
</g>
<defs>
<clipPath id="clip0_4635_26366">
<rect width="36" height="36" fill="white" transform="translate(7.5 7)"/>
</clipPath>
</defs>
</svg>
