<svg width="43" height="50" viewBox="0 0 43 50" fill="none" xmlns="http://www.w3.org/2000/svg">
<g clip-path="url(#clip0_4635_26331)">
<path d="M32.7585 9.50376C35.0362 9.40213 36.6681 11.1371 36.4846 13.2567C36.3547 14.048 36.2209 14.8392 36.091 15.6268C35.063 20.9695 32.3802 26.1816 27.905 29.6405C28.0005 31.0488 27.6528 32.3409 26.7394 33.4552C26.2005 34.1121 24.6069 35.5022 23.9152 36.2644C22.9636 37.0266 21.4464 36.827 20.77 35.8289C20.5292 35.4732 20.1317 34.2682 19.8795 33.7709C19.0502 33.9561 18.1177 34.2972 17.2693 34.1448C17.6133 35.8398 16.7534 37.4876 15.2591 38.4059C13.8298 39.2842 12.626 38.9939 11.3725 39.4766C10.8107 39.6907 10.719 39.9666 10.2642 40.2061C9.2362 40.7506 7.94831 40.5183 7.23366 39.6254C6.35085 38.5257 6.33175 35.9015 6.98907 34.6493C6.2362 33.5641 6.43111 32.7256 7.0464 31.6549C7.92155 30.1232 9.43111 28.8892 11.3649 28.9436C10.5279 27.8294 11.0782 26.7151 11.3649 25.521C10.654 25.1616 9.69862 24.9693 9.1292 24.414C8.31901 23.6227 8.28843 22.425 8.96104 21.543C9.09098 21.3724 11.0935 19.4233 11.3534 19.1983C12.5496 18.1748 13.933 17.6993 15.5572 17.8263C19.1993 13.5035 24.5649 10.9084 30.24 9.85946C30.798 9.75783 32.2579 9.52554 32.7547 9.50376H32.7585ZM32.7776 11.5182C32.3725 11.5363 30.8935 11.7831 30.412 11.8739C25.1305 12.8865 20.5751 15.184 17.147 19.1584C17.0362 19.289 16.6349 19.8552 16.5165 19.8806C15.1292 19.8117 14.0706 19.6447 12.9317 20.5594C12.7865 20.6755 10.7343 22.6282 10.6502 22.7625C10.5509 22.915 10.6082 22.9984 10.7534 23.0928C11.8273 23.5247 12.9012 23.953 13.9751 24.3849C13.761 25.0165 13.5509 25.6444 13.3368 26.2759C13.2681 26.5191 12.9814 27.5753 13.054 27.7386C14.5712 29.2086 16.0884 30.6822 17.6056 32.1522C17.6744 32.163 17.7432 32.1776 17.812 32.1885C18.2171 32.0977 18.626 32.0106 19.0311 31.9199C19.4324 31.8001 19.8337 31.6803 20.2311 31.5642C20.5636 31.4589 21.0451 31.1794 21.1407 31.3754C21.5458 32.3336 21.9547 33.2882 22.3598 34.2464C22.4247 34.4025 22.4897 34.5622 22.5585 34.7183C23.1432 34.0395 24.8247 32.5877 25.2145 32.036C25.6808 31.3754 25.8069 30.7185 25.7954 29.9309C25.7687 29.5861 25.7458 29.2413 25.719 28.8965L25.7763 28.7368C26.3228 28.2867 26.8731 27.8403 27.4196 27.3902C30.3623 24.7914 32.3878 21.22 33.454 17.5577C33.8744 16.1132 34.1075 14.6323 34.356 13.1551C34.4782 12.1533 33.8438 11.471 32.77 11.5218L32.7776 11.5182ZM11.2617 30.9544C10.2222 30.9363 9.38907 31.7856 8.92283 32.5877C8.80818 32.7873 8.40308 33.4261 8.81964 33.506C9.00308 33.5423 9.75977 33.3935 10.2566 33.5858C9.45022 34.5223 8.73557 35.3026 8.64003 36.5802C8.6171 36.9105 8.68589 38.464 9.06423 38.4966C9.25149 38.5111 9.38907 38.2861 9.51518 38.1917C9.84385 37.9486 10.2145 37.7489 10.6044 37.6038C11.9763 37.092 13.1343 37.2372 13.9636 36.8016C15.347 36.083 15.5954 34.5477 14.6668 33.3681C14.2961 32.8999 14.3954 33.2265 13.8298 33.6439C13.463 33.9161 12.9088 34.1339 12.4388 34.1593C11.9152 34.192 11.8923 34.094 11.9802 33.4733C12.0528 32.9579 12.2935 32.4933 12.6375 32.1013C12.9776 31.7057 13.2489 31.7819 12.6107 31.3972C12.2362 31.1722 11.7088 30.958 11.2579 30.9508L11.2617 30.9544Z" fill="#821FFF"/>
<path d="M25.23 15.5504C28.2491 15.3472 30.6109 17.8117 30.2134 20.6427C29.9306 22.6753 28.0656 24.334 25.9064 24.4501C22.5319 24.6316 20.1166 21.4521 21.2593 18.4505C21.8554 16.8897 23.4682 15.6738 25.23 15.5541V15.5504ZM25.4937 17.5467C23.6593 17.6229 22.4822 19.6119 23.4185 21.2125C24.2822 22.6898 26.4835 22.8676 27.5879 21.5319C28.9255 19.9132 27.6873 17.456 25.4937 17.5467Z" fill="#821FFF"/>
</g>
<defs>
<clipPath id="clip0_4635_26331">
<rect width="30" height="31" fill="white" transform="translate(6.5 9.5)"/>
</clipPath>
</defs>
</svg>
