<svg width="35" height="35" viewBox="0 0 35 35" fill="none" xmlns="http://www.w3.org/2000/svg">
<g clip-path="url(#clip0_4603_8643)">
<path d="M29.0919 2.00376C31.3696 1.90213 33.0014 3.63706 32.818 5.75672C32.6881 6.54796 32.5543 7.3392 32.4244 8.12681C31.3963 13.4695 28.7135 18.6816 24.2384 22.1405C24.3339 23.5488 23.9861 24.8409 23.0728 25.9552C22.5339 26.6121 20.9403 28.0022 20.2486 28.7644C19.297 29.5266 17.7798 29.327 17.1033 28.3289C16.8626 27.9732 16.4651 26.7682 16.2129 26.2709C15.3836 26.4561 14.4511 26.7972 13.6027 26.6448C13.9466 28.3398 13.0868 29.9876 11.5925 30.9059C10.1632 31.7842 8.95939 31.4939 7.70588 31.9766C7.1441 32.1907 7.05238 32.4666 6.5976 32.7061C5.56958 33.2506 4.28168 33.0183 3.56703 32.1254C2.68423 31.0257 2.66512 28.4015 3.32244 27.1493C2.56958 26.0641 2.76448 25.2256 3.37977 24.1549C4.25493 22.6232 5.76448 21.3892 7.69824 21.4436C6.8613 20.3294 7.41162 19.2151 7.69824 18.021C6.98741 17.6616 6.032 17.4693 5.46257 16.914C4.65238 16.1227 4.62181 14.925 5.29442 14.043C5.42436 13.8724 7.4269 11.9233 7.68678 11.6983C8.88295 10.6748 10.2664 10.1993 11.8906 10.3263C15.5326 6.00353 20.8982 3.4084 26.5734 2.35946C27.1314 2.25783 28.5912 2.02554 29.0881 2.00376H29.0919ZM29.111 4.01816C28.7059 4.03631 27.2269 4.28312 26.7454 4.37386C21.4638 5.3865 16.9084 7.68401 13.4804 11.6584C13.3696 11.789 12.9683 12.3552 12.8498 12.3806C11.4626 12.3117 10.404 12.1447 9.26512 13.0594C9.1199 13.1755 7.06767 15.1282 6.98359 15.2625C6.88423 15.415 6.94155 15.4984 7.08678 15.5928C8.16066 16.0247 9.23455 16.453 10.3084 16.8849C10.0944 17.5165 9.88423 18.1444 9.67021 18.7759C9.60143 19.0191 9.3148 20.0753 9.38741 20.2386C10.9046 21.7086 12.4218 23.1822 13.939 24.6522C14.0078 24.663 14.0766 24.6776 14.1454 24.6885C14.5505 24.5977 14.9594 24.5106 15.3645 24.4199C15.7658 24.3001 16.167 24.1803 16.5645 24.0642C16.897 23.9589 17.3785 23.6794 17.474 23.8754C17.8791 24.8336 18.288 25.7882 18.6931 26.7464C18.7581 26.9025 18.8231 27.0622 18.8919 27.2183C19.4766 26.5395 21.1581 25.0877 21.5479 24.536C22.0142 23.8754 22.1403 23.2185 22.1288 22.4309C22.1021 22.0861 22.0791 21.7413 22.0524 21.3965L22.1097 21.2368C22.6562 20.7867 23.2065 20.3403 23.753 19.8902C26.6957 17.2914 28.7212 13.72 29.7874 10.0577C30.2078 8.61317 30.4409 7.13232 30.6893 5.65509C30.8116 4.65333 30.1772 3.97098 29.1033 4.02179L29.111 4.01816ZM7.59506 23.4544C6.55557 23.4363 5.72244 24.2856 5.2562 25.0877C5.14155 25.2873 4.73646 25.9261 5.15302 26.006C5.33646 26.0423 6.09314 25.8935 6.58996 26.0858C5.78359 27.0223 5.06894 27.8026 4.9734 29.0802C4.95047 29.4105 5.01926 30.964 5.3976 30.9966C5.58486 31.0111 5.72244 30.7861 5.84856 30.6917C6.17722 30.4486 6.54792 30.2489 6.93773 30.1038C8.30971 29.592 9.46767 29.7372 10.297 29.3016C11.6804 28.583 11.9288 27.0477 11.0002 25.8681C10.6295 25.3999 10.7288 25.7265 10.1632 26.1439C9.79633 26.4161 9.24219 26.6339 8.77213 26.6593C8.24856 26.692 8.22563 26.594 8.31353 25.9733C8.38614 25.4579 8.6269 24.9933 8.97085 24.6013C9.31098 24.2057 9.58232 24.2819 8.9441 23.8972C8.56958 23.6722 8.04219 23.458 7.59123 23.4508L7.59506 23.4544Z" fill="url(#paint0_linear_4603_8643)"/>
<path d="M21.5633 8.05056C24.5824 7.84731 26.9442 10.3118 26.5468 13.1428C26.264 15.1754 24.399 16.8341 22.2397 16.9502C18.8652 17.1317 16.4499 13.9522 17.5926 10.9506C18.1888 9.38987 19.8015 8.17397 21.5633 8.05419V8.05056ZM21.827 10.0468C19.9926 10.123 18.8155 12.112 19.7519 13.7127C20.6155 15.1899 22.8168 15.3677 23.9213 14.0321C25.2589 12.4133 24.0206 9.95608 21.827 10.0468Z" fill="url(#paint1_linear_4603_8643)"/>
</g>
<defs>
<linearGradient id="paint0_linear_4603_8643" x1="2.83374" y1="1.99951" x2="33.8151" y2="31.9817" gradientUnits="userSpaceOnUse">
<stop stop-color="#01FEA8"/>
<stop offset="0.510417" stop-color="#46A5FF"/>
<stop offset="1" stop-color="#D632FF"/>
</linearGradient>
<linearGradient id="paint1_linear_4603_8643" x1="17.3055" y1="8.03882" x2="26.2172" y2="17.3163" gradientUnits="userSpaceOnUse">
<stop stop-color="#01FEA8"/>
<stop offset="0.510417" stop-color="#46A5FF"/>
<stop offset="1" stop-color="#D632FF"/>
</linearGradient>
<clipPath id="clip0_4603_8643">
<rect width="30" height="31" fill="white" transform="translate(2.83337 2)"/>
</clipPath>
</defs>
</svg>
