<svg width="226" height="48" viewBox="0 0 226 48" fill="none" xmlns="http://www.w3.org/2000/svg">
<rect x="0.5" y="0.5" width="225" height="47" rx="23.5" stroke="url(#paint0_linear_5758_143689)"/>
<path d="M28.556 29V18.328H34.172C36.204 18.328 37.244 19.624 37.244 21.048C37.244 22.392 36.412 23.288 35.404 23.496C36.54 23.672 37.452 24.776 37.452 26.12C37.452 27.72 36.38 29 34.348 29H28.556ZM30.828 22.616H33.676C34.444 22.616 34.924 22.12 34.924 21.432C34.924 20.776 34.444 20.264 33.676 20.264H30.828V22.616ZM30.828 27.064H33.756C34.62 27.064 35.132 26.568 35.132 25.8C35.132 25.128 34.652 24.552 33.756 24.552H30.828V27.064ZM44.3334 29V28.024C43.8054 28.616 42.8774 29.192 41.6134 29.192C39.9174 29.192 39.1174 28.264 39.1174 26.76V21.272H41.1494V25.96C41.1494 27.032 41.7094 27.384 42.5734 27.384C43.3574 27.384 43.9814 26.952 44.3334 26.504V21.272H46.3654V29H44.3334ZM48.415 30.2C48.591 30.28 48.863 30.328 49.055 30.328C49.583 30.328 49.935 30.184 50.127 29.768L50.415 29.112L47.279 21.272H49.455L51.471 26.648L53.487 21.272H55.679L52.047 30.264C51.471 31.72 50.447 32.104 49.119 32.136C48.879 32.136 48.367 32.088 48.111 32.024L48.415 30.2ZM60.7279 29V18.328H65.7199C68.0399 18.328 69.3039 19.896 69.3039 21.768C69.3039 23.624 68.0239 25.176 65.7199 25.176H62.9999V29H60.7279ZM66.9839 21.752C66.9839 20.872 66.3119 20.28 65.4159 20.28H62.9999V23.224H65.4159C66.3119 23.224 66.9839 22.648 66.9839 21.752ZM70.6643 29V21.272H72.6963V22.328C73.2403 21.64 74.2003 21.096 75.1603 21.096V23.08C75.0163 23.048 74.8243 23.016 74.6003 23.016C73.9283 23.016 73.0323 23.4 72.6963 23.896V29H70.6643ZM75.9339 25.128C75.9339 22.888 77.5819 21.08 79.9339 21.08C82.2379 21.08 83.8059 22.808 83.8059 25.336V25.784H78.0619C78.1899 26.76 78.9739 27.576 80.2859 27.576C81.0059 27.576 81.8539 27.288 82.3499 26.808L83.2459 28.12C82.4779 28.824 81.2619 29.192 80.0619 29.192C77.7099 29.192 75.9339 27.608 75.9339 25.128ZM79.9339 22.696C78.6699 22.696 78.1259 23.64 78.0299 24.408H81.8379C81.7899 23.672 81.2779 22.696 79.9339 22.696ZM94.8576 29V24.12C94.8576 23.4 94.5376 22.888 93.7056 22.888C92.9856 22.888 92.3936 23.368 92.1056 23.784V29H90.0576V24.12C90.0576 23.4 89.7376 22.888 88.9056 22.888C88.2016 22.888 87.6096 23.368 87.3056 23.8V29H85.2736V21.272H87.3056V22.28C87.6256 21.816 88.6496 21.08 89.8336 21.08C90.9696 21.08 91.6896 21.608 91.9776 22.488C92.4256 21.784 93.4496 21.08 94.6336 21.08C96.0576 21.08 96.9056 21.832 96.9056 23.416V29H94.8576ZM99.9066 20.136C99.2506 20.136 98.6906 19.592 98.6906 18.92C98.6906 18.248 99.2506 17.704 99.9066 17.704C100.579 17.704 101.123 18.248 101.123 18.92C101.123 19.592 100.579 20.136 99.9066 20.136ZM98.8986 29V21.272H100.931V29H98.8986ZM108.162 29V28.024C107.634 28.616 106.706 29.192 105.442 29.192C103.746 29.192 102.946 28.264 102.946 26.76V21.272H104.978V25.96C104.978 27.032 105.538 27.384 106.402 27.384C107.186 27.384 107.81 26.952 108.162 26.504V21.272H110.194V29H108.162ZM121.795 29V24.12C121.795 23.4 121.475 22.888 120.643 22.888C119.923 22.888 119.331 23.368 119.043 23.784V29H116.995V24.12C116.995 23.4 116.675 22.888 115.843 22.888C115.139 22.888 114.547 23.368 114.243 23.8V29H112.211V21.272H114.243V22.28C114.563 21.816 115.587 21.08 116.771 21.08C117.907 21.08 118.627 21.608 118.915 22.488C119.363 21.784 120.387 21.08 121.571 21.08C122.995 21.08 123.843 21.832 123.843 23.416V29H121.795ZM129.978 29V18.328H132.25V27H136.762V29H129.978ZM142.836 29V28.2C142.308 28.824 141.396 29.192 140.388 29.192C139.156 29.192 137.7 28.36 137.7 26.632C137.7 24.824 139.156 24.168 140.388 24.168C141.411 24.168 142.324 24.488 142.836 25.112V24.04C142.836 23.256 142.164 22.744 141.14 22.744C140.308 22.744 139.539 23.048 138.884 23.656L138.116 22.296C139.06 21.464 140.276 21.08 141.492 21.08C143.252 21.08 144.868 21.784 144.868 24.008V29H142.836ZM142.836 27.144V26.184C142.5 25.736 141.86 25.512 141.204 25.512C140.404 25.512 139.748 25.928 139.748 26.68C139.748 27.4 140.404 27.816 141.204 27.816C141.86 27.816 142.5 27.592 142.836 27.144ZM152.099 29V24.328C152.099 23.256 151.539 22.888 150.675 22.888C149.875 22.888 149.251 23.336 148.915 23.8V29H146.883V21.272H148.915V22.28C149.411 21.688 150.355 21.08 151.619 21.08C153.315 21.08 154.131 22.04 154.131 23.544V29H152.099ZM161.461 29V28.008C160.853 28.776 160.005 29.192 159.077 29.192C157.125 29.192 155.653 27.72 155.653 25.144C155.653 22.616 157.109 21.08 159.077 21.08C159.989 21.08 160.853 21.48 161.461 22.264V18.328H163.509V29H161.461ZM161.461 26.504V23.768C161.125 23.256 160.389 22.888 159.701 22.888C158.549 22.888 157.749 23.8 157.749 25.144C157.749 26.472 158.549 27.384 159.701 27.384C160.389 27.384 161.125 27.016 161.461 26.504Z" fill="white"/>
<path fill-rule="evenodd" clip-rule="evenodd" d="M186.793 28.2914C186.606 28.4791 186.5 28.7337 186.5 28.9992C186.5 29.1971 186.559 29.3906 186.669 29.5552C186.779 29.7198 186.935 29.8481 187.118 29.9238C187.3 29.9996 187.501 30.0194 187.695 29.9808C187.889 29.9422 188.067 29.8469 188.207 29.7069L193.108 24.801C193.143 24.7744 193.176 24.7454 193.207 24.7141C193.395 24.5263 193.5 24.2717 193.5 24.0062C193.5 24.0042 193.5 24.0021 193.5 24.0001C193.5 23.998 193.5 23.996 193.5 23.994C193.5 23.7285 193.395 23.4739 193.207 23.2862L188.207 18.281C188.019 18.0987 187.766 17.9978 187.504 18C187.242 18.0023 186.991 18.1076 186.805 18.2932C186.62 18.4788 186.515 18.7299 186.513 18.9923C186.51 19.2548 186.611 19.5077 186.793 19.6965L190.098 23.0052L180.5 23.0052C180.235 23.0052 179.98 23.1107 179.793 23.2984C179.605 23.4861 179.5 23.7407 179.5 24.0062C179.5 24.2717 179.605 24.5263 179.793 24.7141C179.98 24.9018 180.235 25.0073 180.5 25.0073L190.074 25.0073L186.793 28.2914Z" fill="white"/>
<defs>
<linearGradient id="paint0_linear_5758_143689" x1="0" y1="0" x2="19.5093" y2="91.8564" gradientUnits="userSpaceOnUse">
<stop stop-color="#01FEA8"/>
<stop offset="0.510417" stop-color="#46A5FF"/>
<stop offset="1" stop-color="#D632FF"/>
</linearGradient>
</defs>
</svg>
