<svg width="226" height="48" viewBox="0 0 226 48" fill="none" xmlns="http://www.w3.org/2000/svg">
<rect x="0.5" y="0.5" width="225" height="47" rx="23.5" stroke="url(#paint0_linear_5758_143699)"/>
<path d="M28.556 29V18.328H34.172C36.204 18.328 37.244 19.624 37.244 21.048C37.244 22.392 36.412 23.288 35.404 23.496C36.54 23.672 37.452 24.776 37.452 26.12C37.452 27.72 36.38 29 34.348 29H28.556ZM30.828 22.616H33.676C34.444 22.616 34.924 22.12 34.924 21.432C34.924 20.776 34.444 20.264 33.676 20.264H30.828V22.616ZM30.828 27.064H33.756C34.62 27.064 35.132 26.568 35.132 25.8C35.132 25.128 34.652 24.552 33.756 24.552H30.828V27.064ZM44.3334 29V28.024C43.8054 28.616 42.8774 29.192 41.6134 29.192C39.9174 29.192 39.1174 28.264 39.1174 26.76V21.272H41.1494V25.96C41.1494 27.032 41.7094 27.384 42.5734 27.384C43.3574 27.384 43.9814 26.952 44.3334 26.504V21.272H46.3654V29H44.3334ZM48.415 30.2C48.591 30.28 48.863 30.328 49.055 30.328C49.583 30.328 49.935 30.184 50.127 29.768L50.415 29.112L47.279 21.272H49.455L51.471 26.648L53.487 21.272H55.679L52.047 30.264C51.471 31.72 50.447 32.104 49.119 32.136C48.879 32.136 48.367 32.088 48.111 32.024L48.415 30.2ZM59.9919 27.496L61.2399 25.768C61.9919 26.552 63.1599 27.208 64.6319 27.208C65.8799 27.208 66.4879 26.616 66.4879 26.008C66.4879 25.208 65.5599 24.936 64.3279 24.648C62.5839 24.248 60.3439 23.768 60.3439 21.384C60.3439 19.608 61.8799 18.168 64.3919 18.168C66.0879 18.168 67.4959 18.68 68.5519 19.656L67.2879 21.32C66.4239 20.52 65.2719 20.152 64.2319 20.152C63.2079 20.152 62.6639 20.6 62.6639 21.24C62.6639 21.96 63.5599 22.184 64.7919 22.472C66.5519 22.872 68.7919 23.4 68.7919 25.768C68.7919 27.72 67.3999 29.192 64.5199 29.192C62.4719 29.192 60.9999 28.504 59.9919 27.496ZM72.6938 29.192C71.2698 29.192 70.5018 28.456 70.5018 27.08V23.048H69.2218V21.272H70.5018V19.16H72.5498V21.272H74.1178V23.048H72.5498V26.536C72.5498 27.016 72.8058 27.384 73.2538 27.384C73.5578 27.384 73.8458 27.272 73.9578 27.16L74.3898 28.696C74.0858 28.968 73.5418 29.192 72.6938 29.192ZM80.148 29V28.2C79.62 28.824 78.708 29.192 77.7 29.192C76.468 29.192 75.012 28.36 75.012 26.632C75.012 24.824 76.468 24.168 77.7 24.168C78.724 24.168 79.636 24.488 80.148 25.112V24.04C80.148 23.256 79.476 22.744 78.452 22.744C77.62 22.744 76.852 23.048 76.196 23.656L75.428 22.296C76.372 21.464 77.588 21.08 78.804 21.08C80.564 21.08 82.18 21.784 82.18 24.008V29H80.148ZM80.148 27.144V26.184C79.812 25.736 79.172 25.512 78.516 25.512C77.716 25.512 77.06 25.928 77.06 26.68C77.06 27.4 77.716 27.816 78.516 27.816C79.172 27.816 79.812 27.592 80.148 27.144ZM89.4115 29V24.328C89.4115 23.256 88.8515 22.888 87.9875 22.888C87.1875 22.888 86.5635 23.336 86.2275 23.8V29H84.1955V21.272H86.2275V22.28C86.7235 21.688 87.6675 21.08 88.9315 21.08C90.6275 21.08 91.4435 22.04 91.4435 23.544V29H89.4115ZM98.7731 29V28.008C98.1651 28.776 97.3171 29.192 96.3891 29.192C94.4371 29.192 92.9651 27.72 92.9651 25.144C92.9651 22.616 94.4211 21.08 96.3891 21.08C97.3011 21.08 98.1651 21.48 98.7731 22.264V18.328H100.821V29H98.7731ZM98.7731 26.504V23.768C98.4371 23.256 97.7011 22.888 97.0131 22.888C95.8611 22.888 95.0611 23.8 95.0611 25.144C95.0611 26.472 95.8611 27.384 97.0131 27.384C97.7011 27.384 98.4371 27.016 98.7731 26.504ZM107.476 29V28.2C106.948 28.824 106.036 29.192 105.028 29.192C103.796 29.192 102.34 28.36 102.34 26.632C102.34 24.824 103.796 24.168 105.028 24.168C106.052 24.168 106.964 24.488 107.476 25.112V24.04C107.476 23.256 106.804 22.744 105.78 22.744C104.948 22.744 104.18 23.048 103.524 23.656L102.756 22.296C103.7 21.464 104.916 21.08 106.132 21.08C107.892 21.08 109.508 21.784 109.508 24.008V29H107.476ZM107.476 27.144V26.184C107.14 25.736 106.5 25.512 105.844 25.512C105.044 25.512 104.388 25.928 104.388 26.68C104.388 27.4 105.044 27.816 105.844 27.816C106.5 27.816 107.14 27.592 107.476 27.144ZM111.524 29V21.272H113.556V22.328C114.1 21.64 115.06 21.096 116.02 21.096V23.08C115.876 23.048 115.684 23.016 115.46 23.016C114.788 23.016 113.892 23.4 113.556 23.896V29H111.524ZM122.601 29V28.008C121.993 28.776 121.145 29.192 120.217 29.192C118.265 29.192 116.793 27.72 116.793 25.144C116.793 22.616 118.249 21.08 120.217 21.08C121.129 21.08 121.993 21.48 122.601 22.264V18.328H124.649V29H122.601ZM122.601 26.504V23.768C122.265 23.256 121.529 22.888 120.841 22.888C119.689 22.888 118.889 23.8 118.889 25.144C118.889 26.472 119.689 27.384 120.841 27.384C121.529 27.384 122.265 27.016 122.601 26.504ZM130.806 29V18.328H133.078V27H137.59V29H130.806ZM143.664 29V28.2C143.136 28.824 142.224 29.192 141.216 29.192C139.984 29.192 138.528 28.36 138.528 26.632C138.528 24.824 139.984 24.168 141.216 24.168C142.24 24.168 143.152 24.488 143.664 25.112V24.04C143.664 23.256 142.992 22.744 141.968 22.744C141.136 22.744 140.368 23.048 139.712 23.656L138.944 22.296C139.888 21.464 141.104 21.08 142.32 21.08C144.08 21.08 145.696 21.784 145.696 24.008V29H143.664ZM143.664 27.144V26.184C143.328 25.736 142.688 25.512 142.032 25.512C141.232 25.512 140.576 25.928 140.576 26.68C140.576 27.4 141.232 27.816 142.032 27.816C142.688 27.816 143.328 27.592 143.664 27.144ZM152.927 29V24.328C152.927 23.256 152.367 22.888 151.503 22.888C150.703 22.888 150.079 23.336 149.743 23.8V29H147.711V21.272H149.743V22.28C150.239 21.688 151.183 21.08 152.447 21.08C154.143 21.08 154.959 22.04 154.959 23.544V29H152.927ZM162.289 29V28.008C161.681 28.776 160.833 29.192 159.905 29.192C157.953 29.192 156.481 27.72 156.481 25.144C156.481 22.616 157.937 21.08 159.905 21.08C160.817 21.08 161.681 21.48 162.289 22.264V18.328H164.337V29H162.289ZM162.289 26.504V23.768C161.953 23.256 161.217 22.888 160.529 22.888C159.377 22.888 158.577 23.8 158.577 25.144C158.577 26.472 159.377 27.384 160.529 27.384C161.217 27.384 161.953 27.016 162.289 26.504Z" fill="white"/>
<path fill-rule="evenodd" clip-rule="evenodd" d="M186.793 28.2914C186.606 28.4791 186.5 28.7337 186.5 28.9992C186.5 29.1971 186.559 29.3906 186.669 29.5552C186.779 29.7198 186.935 29.8481 187.118 29.9238C187.3 29.9996 187.501 30.0194 187.695 29.9808C187.889 29.9422 188.067 29.8469 188.207 29.7069L193.108 24.801C193.143 24.7744 193.176 24.7454 193.207 24.7141C193.395 24.5263 193.5 24.2717 193.5 24.0062C193.5 24.0042 193.5 24.0021 193.5 24.0001C193.5 23.998 193.5 23.996 193.5 23.994C193.5 23.7285 193.395 23.4739 193.207 23.2862L188.207 18.281C188.019 18.0987 187.766 17.9978 187.504 18C187.242 18.0023 186.991 18.1076 186.805 18.2932C186.62 18.4788 186.515 18.7299 186.513 18.9923C186.51 19.2548 186.611 19.5077 186.793 19.6965L190.098 23.0052L180.5 23.0052C180.235 23.0052 179.98 23.1107 179.793 23.2984C179.605 23.4861 179.5 23.7407 179.5 24.0062C179.5 24.2717 179.605 24.5263 179.793 24.7141C179.98 24.9018 180.235 25.0073 180.5 25.0073L190.074 25.0073L186.793 28.2914Z" fill="white"/>
<defs>
<linearGradient id="paint0_linear_5758_143699" x1="0" y1="0" x2="19.5093" y2="91.8564" gradientUnits="userSpaceOnUse">
<stop stop-color="#01FEA8"/>
<stop offset="0.510417" stop-color="#46A5FF"/>
<stop offset="1" stop-color="#D632FF"/>
</linearGradient>
</defs>
</svg>
