<svg width="20" height="20" viewBox="0 0 20 20" fill="none" xmlns="http://www.w3.org/2000/svg">
<path d="M9.47955 2.27442C9.76564 2.4654 10.2339 2.4654 10.5196 2.27442L11.2753 1.76965C11.343 1.72426 11.4191 1.69296 11.4991 1.67759C11.5791 1.66222 11.6613 1.66309 11.7409 1.68015C11.8205 1.69722 11.8959 1.73013 11.9627 1.77694C12.0295 1.82376 12.0862 1.88354 12.1297 1.95275L12.6157 2.72321C12.7999 3.01472 13.2273 3.2059 13.566 3.14835L14.4607 2.99599C14.541 2.9822 14.6231 2.98468 14.7024 3.00328C14.7817 3.02188 14.8564 3.05623 14.9223 3.10431C14.9882 3.15239 15.0438 3.21323 15.0859 3.28325C15.1281 3.35326 15.1558 3.43103 15.1676 3.512L15.3002 4.41274C15.3504 4.75431 15.6633 5.10455 15.9961 5.19068L16.8739 5.41813C16.9529 5.43849 17.0269 5.47447 17.0918 5.52398C17.1567 5.57349 17.2111 5.63552 17.2518 5.70644C17.2925 5.77736 17.3187 5.85574 17.3289 5.93698C17.339 6.01821 17.333 6.10068 17.311 6.17953L17.0675 7.05523C16.9751 7.38794 17.12 7.83555 17.3889 8.04999L18.1016 8.61862C18.1655 8.66941 18.2185 8.73252 18.2578 8.80422C18.297 8.87593 18.3215 8.9548 18.33 9.03618C18.3384 9.11756 18.3306 9.19982 18.307 9.27813C18.2834 9.35643 18.2444 9.4292 18.1924 9.49216L17.6142 10.1944C17.3951 10.4605 17.3461 10.9282 17.505 11.2341L17.9256 12.0416C17.9634 12.1141 17.9864 12.1935 17.9932 12.275C18.0001 12.3566 17.9907 12.4387 17.9655 12.5165C17.9404 12.5943 17.9 12.6663 17.8467 12.7283C17.7935 12.7902 17.7285 12.8408 17.6555 12.8771L16.8428 13.2826C16.5353 13.4361 16.3012 13.8437 16.3228 14.1882L16.3786 15.0976C16.3839 15.1793 16.3728 15.2612 16.3461 15.3385C16.3193 15.4159 16.2775 15.487 16.223 15.5479C16.1685 15.6087 16.1025 15.658 16.0288 15.6928C15.9551 15.7276 15.8753 15.7473 15.7939 15.7506L14.8882 15.7893C14.545 15.8038 14.1662 16.0808 14.0464 16.4044L13.7313 17.2578C13.703 17.3346 13.6598 17.4049 13.6041 17.4647C13.5484 17.5244 13.4814 17.5723 13.407 17.6057C13.3326 17.639 13.2523 17.657 13.1709 17.6587C13.0894 17.6603 13.0085 17.6456 12.9328 17.6154L12.0887 17.2801C11.7696 17.1528 11.3116 17.2509 11.0714 17.4975L10.4372 18.1483C10.3803 18.2069 10.3124 18.2534 10.2374 18.2851C10.1623 18.3169 10.0817 18.3333 10.0003 18.3333C9.91893 18.3334 9.83833 18.3171 9.76327 18.2854C9.68822 18.2537 9.62023 18.2072 9.56328 18.1487L8.92835 17.4973C8.68775 17.2509 8.23009 17.153 7.91086 17.2801L7.0671 17.6154C6.99145 17.6456 6.91053 17.6603 6.82913 17.6586C6.74773 17.657 6.66749 17.6389 6.59312 17.6056C6.51876 17.5723 6.45178 17.5244 6.39612 17.4646C6.34046 17.4049 6.29725 17.3346 6.26903 17.2578L5.95314 16.4044C5.83353 16.0806 5.45489 15.8038 5.11174 15.7893L4.20602 15.7506C4.12466 15.7472 4.0448 15.7276 3.97113 15.6927C3.89745 15.6579 3.83143 15.6086 3.77696 15.5478C3.72249 15.487 3.68066 15.4158 3.65393 15.3385C3.6272 15.2612 3.6161 15.1793 3.62129 15.0976L3.67796 14.1882C3.69913 13.8437 3.46501 13.4363 3.15754 13.2826L2.34496 12.8771C2.272 12.8408 2.20699 12.7902 2.15377 12.7283C2.10054 12.6663 2.06016 12.5943 2.035 12.5165C2.00985 12.4387 2.00043 12.3566 2.00729 12.275C2.01415 12.1935 2.03715 12.1141 2.07495 12.0416L2.49536 11.2341C2.65439 10.928 2.60537 10.4603 2.38614 10.1948L1.8073 9.49196C1.75534 9.42901 1.71643 9.35627 1.69284 9.27799C1.66926 9.19971 1.66147 9.11748 1.66995 9.03614C1.67842 8.9548 1.70299 8.87597 1.7422 8.80431C1.78141 8.73264 1.83448 8.66958 1.89828 8.61882L2.61105 8.05019C2.88008 7.83574 3.0246 7.38853 2.93244 7.05583L2.6889 6.17972C2.66683 6.10093 2.66067 6.01849 2.67077 5.93726C2.68087 5.85603 2.70704 5.77766 2.74773 5.70675C2.78842 5.63584 2.84281 5.57382 2.9077 5.52436C2.97259 5.4749 3.04667 5.43898 3.12558 5.41873L4.00405 5.19049C4.33641 5.10455 4.64976 4.7545 4.69996 4.41293L4.83251 3.51219C4.84429 3.43125 4.87205 3.35349 4.91417 3.2835C4.95628 3.2135 5.0119 3.15267 5.07774 3.10459C5.14359 3.05651 5.21833 3.02216 5.29758 3.00354C5.37683 2.98492 5.45898 2.98243 5.5392 2.99619L6.43394 3.14855C6.77258 3.2061 7.20005 3.01472 7.38378 2.72341L7.86988 1.95295C7.91334 1.88378 7.97013 1.82404 8.0369 1.77725C8.10368 1.73047 8.17908 1.69758 8.25868 1.68052C8.33829 1.66345 8.42048 1.66257 8.50043 1.67791C8.58038 1.69325 8.65647 1.72451 8.72423 1.76984L9.47955 2.27442V2.27442Z" fill="url(#paint0_linear_4410_114432)"/>
<path d="M13.4772 7.16221L8.66435 11.6917L6.55249 9.52353C6.46808 9.43682 6.36787 9.36802 6.25756 9.32106C6.14726 9.27411 6.02903 9.24992 5.90961 9.24988C5.66846 9.24979 5.43714 9.34806 5.26655 9.52306C5.09597 9.69807 5.00009 9.93548 5 10.1831C4.99991 10.4307 5.09563 10.6681 5.2661 10.8433L7.99343 13.6433C8.1591 13.8134 8.38234 13.9112 8.6166 13.9165C8.85085 13.9217 9.07803 13.8338 9.25073 13.6713L14.7054 8.53794C14.8831 8.3706 14.9888 8.13765 14.9992 7.89033C15.0096 7.64301 14.9238 7.40157 14.7608 7.21914C14.5978 7.03671 14.3709 6.92822 14.13 6.91754C13.8891 6.90686 13.654 6.99487 13.4763 7.16221H13.4772Z" fill="white"/>
<defs>
<linearGradient id="paint0_linear_4410_114432" x1="1.66663" y1="1.66667" x2="18.3333" y2="18.3333" gradientUnits="userSpaceOnUse">
<stop stop-color="#01FEA8"/>
<stop offset="0.510417" stop-color="#46A5FF"/>
<stop offset="1" stop-color="#D632FF"/>
</linearGradient>
</defs>
</svg>
