<svg width="265" height="254" viewBox="0 0 265 254" fill="none" xmlns="http://www.w3.org/2000/svg">
<g clip-path="url(#clip0_5024_69380)">
<path d="M96.9387 100.569C99.5899 102.001 102.337 103.37 104.914 104.632C105.651 104.993 106.4 105.343 107.148 105.693L131.811 91.5319L158.055 106.605C160.813 108.186 162.513 111.124 162.513 114.285V114.974C162.513 118.146 160.813 121.074 158.055 122.654L155.265 124.256C157.873 125.03 160.653 125.773 163.753 126.526C165.453 126.929 167.046 127.268 168.564 127.565C171.514 124.086 173.214 119.631 173.214 114.964V89.9302C173.214 82.9824 169.451 76.5012 163.4 73.022L141.614 60.5052C141.453 60.4098 141.271 60.3461 141.111 60.2613L131.821 55L122.734 60.1764C122.499 60.3037 122.243 60.3992 122.007 60.5265L100.221 73.0432C94.1699 76.5224 90.4069 82.993 90.4069 89.9514V96.8144C92.406 98.0449 94.5655 99.2966 96.9387 100.569ZM101.108 89.9514C101.108 86.7798 102.808 83.8522 105.566 82.2717L131.811 67.1985L158.055 82.2717C160.813 83.8522 162.513 86.7904 162.513 89.9514V96.8781L141.614 84.8705C141.453 84.775 141.271 84.7114 141.111 84.6265L131.811 79.344L122.724 84.5204C122.489 84.6477 122.232 84.7432 121.997 84.8705L101.097 96.8781V89.9514H101.108Z" fill="url(#paint0_linear_5024_69380)"/>
<path d="M138.909 133.654L131.821 137.727L105.576 122.665C103.545 121.498 102.091 119.61 101.461 117.425C97.7405 115.229 94.1485 112.917 90.7383 110.498C90.6314 110.424 90.5245 110.339 90.4176 110.265V116.831C90.4176 116.831 90.5031 116.894 90.5459 116.937C91.1766 123.131 94.7472 128.732 100.221 131.883L112.621 139L112.675 139.032L122.018 144.399C122.082 144.442 122.157 144.463 122.232 144.505L131.832 150L141.368 144.537C141.453 144.484 141.549 144.452 141.646 144.399L153.886 137.367C148.936 136.391 143.944 135.16 138.93 133.654H138.909Z" fill="url(#paint1_linear_5024_69380)"/>
<path d="M98.1573 71.3145C98.6598 71.3671 99.1515 71.4303 99.654 71.4935C99.1622 71.4303 98.6598 71.3671 98.1573 71.3145Z" fill="black"/>
<path d="M85.3076 72.958C85.6176 72.958 85.9277 72.958 86.227 72.9782C85.917 72.9681 85.6069 72.9681 85.3076 72.958Z" fill="black"/>
<path d="M70.1915 79.8213C70.1915 80.1503 70.2336 80.4794 70.2862 80.8085C70.2336 80.4794 70.2021 80.1503 70.1915 79.8213Z" fill="black"/>
<path d="M181.617 132.222C182.151 132.222 182.686 132.222 183.22 132.19C182.686 132.211 182.151 132.222 181.617 132.222Z" fill="black"/>
<path d="M100.317 71.5791C101.033 71.6739 101.749 71.7687 102.455 71.874C101.739 71.7687 101.022 71.6739 100.317 71.5791Z" fill="black"/>
<path d="M96.9387 100.569C99.5899 102.001 102.337 103.37 104.914 104.632C105.651 104.993 106.4 105.343 107.148 105.693L131.811 91.5319L158.055 106.605C160.813 108.186 162.513 111.124 162.513 114.285V114.974C162.513 118.146 160.813 121.074 158.055 122.654L155.265 124.256C157.873 125.03 160.653 125.773 163.753 126.526C165.453 126.929 167.046 127.268 168.564 127.565C171.514 124.086 173.214 119.631 173.214 114.964V89.9302C173.214 82.9824 169.451 76.5012 163.4 73.022L141.614 60.5052C141.453 60.4098 141.271 60.3461 141.111 60.2613L131.821 55L122.734 60.1764C122.499 60.3037 122.243 60.3992 122.007 60.5265L100.221 73.0432C94.1699 76.5224 90.4069 82.993 90.4069 89.9514V96.8144C92.406 98.0449 94.5655 99.2966 96.9387 100.569ZM101.108 89.9514C101.108 86.7798 102.808 83.8522 105.566 82.2717L131.811 67.1985L158.055 82.2717C160.813 83.8522 162.513 86.7904 162.513 89.9514V96.8781L141.614 84.8705C141.453 84.775 141.271 84.7114 141.111 84.6265L131.811 79.344L122.724 84.5204C122.489 84.6477 122.232 84.7432 121.997 84.8705L101.097 96.8781V89.9514H101.108Z" fill="url(#paint2_linear_5024_69380)"/>
<path d="M131.821 79.3438L126.006 82.6533L131.821 79.3438L141.122 84.6262L131.821 79.3438Z" fill="url(#paint3_linear_5024_69380)"/>
<path d="M100.221 73.0541C99.4723 73.4785 98.7667 73.9558 98.0932 74.4756C98.7667 73.9558 99.4723 73.4891 100.221 73.0541Z" fill="url(#paint4_linear_5024_69380)"/>
<path d="M195.781 121.222C195.065 119.706 194.21 118.284 193.248 116.99C191.334 114.37 189.1 112.1 186.791 109.947C183.509 106.924 180.024 104.166 176.41 101.599V106.892C179.137 108.716 181.788 110.658 184.289 112.747C186.566 114.688 188.758 116.736 190.575 119.016C191.495 120.141 192.286 121.339 192.938 122.57C193.579 123.8 194.007 125.094 194.05 126.314C194.156 128.817 191.954 130.43 189.346 131.247C188.042 131.66 186.63 131.936 185.187 132.063C183.744 132.212 182.269 132.233 180.794 132.222C177.137 132.138 173.46 131.692 169.804 131.045H169.793L167.944 130.695C167.837 130.674 167.73 130.652 167.623 130.631C167.484 130.599 167.334 130.578 167.195 130.546C166.597 130.419 165.987 130.292 165.367 130.165C165.239 130.133 165.111 130.112 164.972 130.08C164.363 129.942 163.732 129.804 163.08 129.645C163.058 129.645 163.048 129.645 163.026 129.634C163.026 129.634 163.016 129.634 163.005 129.634C161.53 129.274 160.118 128.913 158.771 128.552C158.718 128.542 158.654 128.52 158.6 128.51C157.136 128.117 155.725 127.725 154.367 127.322H154.324C154.324 127.322 154.292 127.301 154.282 127.301C154.249 127.301 154.207 127.279 154.175 127.269L147.269 125.221L147.386 125.158C146.798 124.967 146.21 124.787 145.633 124.585C139.882 122.697 134.205 120.575 128.561 118.369C122.916 116.163 117.347 113.787 111.798 111.326C110.302 110.658 108.816 109.979 107.33 109.289L105.822 108.589C105.085 108.25 104.347 107.9 103.599 107.528C103.577 107.528 103.567 107.518 103.545 107.507C103.545 107.507 103.545 107.507 103.535 107.507C102.22 106.86 100.873 106.192 99.5044 105.502C99.483 105.502 99.4616 105.481 99.4402 105.47C98.104 104.792 96.7677 104.102 95.4421 103.391C94.8006 103.052 94.1913 102.713 93.582 102.373C93.3575 102.246 93.133 102.119 92.8978 101.991C92.5129 101.779 92.1388 101.556 91.7646 101.344C91.476 101.185 91.198 101.015 90.9201 100.846C90.61 100.665 90.3 100.474 89.99 100.294C89.7014 100.114 89.402 99.944 89.1134 99.7637C88.9958 99.6894 88.8782 99.6258 88.7606 99.5515L87.2533 98.6181V98.5969C84.8159 97.0376 82.4533 95.3828 80.2084 93.5902C77.8672 91.7021 75.6329 89.676 73.7621 87.3848C72.8107 86.2499 72.0089 85.03 71.3461 83.7677C70.6833 82.5054 70.2557 81.1583 70.2236 79.8536C70.2022 78.5489 70.6726 77.3502 71.5706 76.4062C72.4579 75.4621 73.7194 74.762 75.0663 74.2847C76.424 73.7967 77.8672 73.4679 79.3425 73.2876C80.8177 73.086 82.3144 73.0012 83.8217 72.98C86.8364 72.9482 89.8724 73.2239 92.8764 73.627C93.2826 73.6801 93.6782 73.7437 94.0737 73.8074C95.0358 72.8739 96.0728 72.0147 97.1953 71.251C92.7374 70.763 88.2582 70.5084 83.7469 70.6994C82.1754 70.7948 80.5932 70.9009 79.0217 71.1661C77.4503 71.4101 75.8681 71.7601 74.3287 72.3329C72.8 72.9163 71.2606 73.6907 70.0205 74.9742C68.7484 76.194 68 78.0397 68 79.8218C67.9893 81.6038 68.5239 83.248 69.1974 84.733C69.8922 86.2286 70.7474 87.6076 71.6775 88.9017C72.1372 89.5594 72.6396 90.1746 73.1314 90.8004C73.6552 91.3944 74.147 92.0203 74.6815 92.6037C75.216 93.1871 75.7398 93.7811 76.2957 94.3327C76.8409 94.9055 77.4075 95.4571 77.9634 96.0087C80.2084 98.215 82.603 100.262 85.0404 102.235C87.4778 104.208 89.9793 106.107 92.5557 107.91C97.6763 111.527 103.032 114.816 108.548 117.796C114.075 120.756 119.773 123.386 125.599 125.688C137.241 130.302 149.396 133.76 161.893 135.532C168.147 136.38 174.476 136.879 180.9 136.455C182.504 136.327 184.118 136.158 185.722 135.84C187.325 135.543 188.94 135.129 190.532 134.492C192.104 133.845 193.697 132.965 194.969 131.554C196.262 130.165 196.947 128.17 196.979 126.325C197 124.468 196.466 122.75 195.771 121.233L195.781 121.222Z" fill="url(#paint5_linear_5024_69380)"/>
</g>
<g clip-path="url(#clip1_5024_69380)">
<path d="M64.9836 193.616L57.7878 197.384L51.196 193.616L49.795 198.336H38L51.2494 161.729H64.9302L78.1796 198.336H66.3845L64.9836 193.616ZM53.9958 184.396L57.7878 186.489L62.1837 184.396L58.0898 171.498L53.9958 184.396Z" fill="#BEBEBE"/>
<path d="M82.103 188.294C84.149 189.941 88.5654 191.643 91.4741 191.643C93.4667 191.643 94.0603 191.094 94.0603 190.38C94.0603 189.501 92.8751 189.173 90.3978 188.844C86.0347 188.241 79.3032 187.417 79.3032 180.227C79.3032 175.452 83.3971 171.172 90.938 171.172C95.3011 171.172 99.1793 172.543 102.195 174.575L98.6391 180.997C97.0225 179.626 94.0069 178.253 90.9914 178.253C89.5905 178.253 88.5675 178.636 88.5675 179.406C88.5675 180.176 89.3214 180.503 91.9076 180.888C96.2706 181.547 103.327 182.479 103.327 189.889C103.327 195.157 98.6945 199 90.9914 199C86.197 199 81.0266 197.298 78.2268 194.939L82.1051 188.298V188.294H82.103Z" fill="#BEBEBE"/>
<path d="M104.678 174.421L114.292 174.381L117.983 186.977L122.993 171.829L135.14 166.833L123.156 198.337H112.868L104.68 174.418L104.678 174.421Z" fill="#BEBEBE"/>
<path d="M133.336 185.056C133.336 177.646 138.722 171.17 147.933 171.17C157.144 171.17 162.583 177.646 162.583 185.056C162.583 192.465 157.197 198.996 147.933 198.996C138.669 198.996 133.336 192.465 133.336 185.056ZM152.619 185.056C152.619 182.146 150.949 179.896 147.933 179.896C144.917 179.896 143.301 182.146 143.301 185.056C143.301 187.965 144.971 190.27 147.933 190.27C150.895 190.27 152.619 188.02 152.619 185.056Z" fill="#BEBEBE"/>
<path d="M166.19 174.14L175.886 169.391V174.847C177.503 172.926 180.894 171.17 183.858 171.17V180.61C183.374 180.444 182.566 180.336 181.65 180.336C179.604 180.336 176.965 180.884 175.886 182.203V198.338H166.19V174.142V174.14Z" fill="#BEBEBE"/>
<path d="M186.605 163.543C186.605 160.47 189.029 158 192.044 158C195.06 158 197.484 160.47 197.484 163.543C197.484 166.615 195.06 169.085 192.044 169.085C189.029 169.085 186.605 166.615 186.605 163.543ZM187.196 171.829H196.892V198.336H187.196V171.829Z" fill="#BEBEBE"/>
<path d="M217.306 195.812C215.852 197.677 212.674 198.996 209.443 198.996C205.565 198.996 200.501 196.306 200.501 190.269C200.501 183.682 205.565 182.092 209.443 182.092C212.837 182.092 215.905 183.191 217.306 185.001V181.983C217.306 180.116 215.636 178.69 212.459 178.69C210.035 178.69 207.288 179.678 205.24 181.269L201.956 175.178C205.456 172.325 210.304 171.172 214.235 171.172C220.698 171.172 227 173.476 227 182.314V198.338H217.304V195.814L217.306 195.812ZM217.306 189.665C216.659 188.731 214.991 188.237 213.482 188.237C211.865 188.237 210.088 188.785 210.088 190.433C210.088 192.08 211.865 192.574 213.482 192.574C214.989 192.574 216.659 192.08 217.306 191.147V189.665Z" fill="#BEBEBE"/>
</g>
<defs>
<linearGradient id="paint0_linear_5024_69380" x1="90.4069" y1="55" x2="162.344" y2="137.091" gradientUnits="userSpaceOnUse">
<stop stop-color="#01FEA8"/>
<stop offset="0.510417" stop-color="#46A5FF"/>
<stop offset="1" stop-color="#D632FF"/>
</linearGradient>
<linearGradient id="paint1_linear_5024_69380" x1="90.4176" y1="110.265" x2="126.161" y2="167.357" gradientUnits="userSpaceOnUse">
<stop stop-color="#01FEA8"/>
<stop offset="0.510417" stop-color="#46A5FF"/>
<stop offset="1" stop-color="#D632FF"/>
</linearGradient>
<linearGradient id="paint2_linear_5024_69380" x1="90.4069" y1="55" x2="162.344" y2="137.091" gradientUnits="userSpaceOnUse">
<stop stop-color="#01FEA8"/>
<stop offset="0.510417" stop-color="#46A5FF"/>
<stop offset="1" stop-color="#D632FF"/>
</linearGradient>
<linearGradient id="paint3_linear_5024_69380" x1="131.308" y1="79.3331" x2="135.606" y2="87.6767" gradientUnits="userSpaceOnUse">
<stop stop-color="#BEBEBE"/>
<stop offset="0.48" stop-color="#03E1FF"/>
<stop offset="0.94" stop-color="#DC1FFF"/>
</linearGradient>
<linearGradient id="paint4_linear_5024_69380" x1="100.092" y1="72.9693" x2="100.282" y2="73.3418" gradientUnits="userSpaceOnUse">
<stop stop-color="#BEBEBE"/>
<stop offset="0.48" stop-color="#03E1FF"/>
<stop offset="0.94" stop-color="#DC1FFF"/>
</linearGradient>
<linearGradient id="paint5_linear_5024_69380" x1="67.9999" y1="70.6357" x2="121.495" y2="175.219" gradientUnits="userSpaceOnUse">
<stop stop-color="#01FEA8"/>
<stop offset="0.510417" stop-color="#46A5FF"/>
<stop offset="1" stop-color="#D632FF"/>
</linearGradient>
<clipPath id="clip0_5024_69380">
<rect width="129" height="95" fill="white" transform="translate(68 55)"/>
</clipPath>
<clipPath id="clip1_5024_69380">
<rect width="189" height="41" fill="white" transform="translate(38 158)"/>
</clipPath>
</defs>
</svg>
