<svg width="183" height="64" viewBox="0 0 183 64" fill="none" xmlns="http://www.w3.org/2000/svg">
<g clip-path="url(#clip0_4544_191839)">
<path d="M14.3572 31.0449C15.6725 31.7534 17.0355 32.4303 18.3137 33.0548C18.6797 33.2333 19.0509 33.4064 19.4222 33.5796L31.6579 26.5737L44.6785 34.0309C46.0469 34.8129 46.8902 36.2665 46.8902 37.8304V38.1715C46.8902 39.7406 46.0469 41.189 44.6785 41.971L43.2943 42.7634C44.5884 43.1465 45.9673 43.5138 47.5054 43.8864C48.3487 44.0859 49.139 44.2538 49.8921 44.4007C51.3559 42.6794 52.1992 40.4753 52.1992 38.1663V25.7813C52.1992 22.3439 50.3323 19.1375 47.3304 17.4161L36.5214 11.2236C36.4418 11.1764 36.3517 11.1449 36.2721 11.1029L31.6632 8.5L27.155 11.061C27.0383 11.1239 26.9111 11.1712 26.7944 11.2341L15.9854 17.4266C12.9835 19.1479 11.1166 22.3492 11.1166 25.7918V29.1871C12.1084 29.7959 13.1797 30.4151 14.3572 31.0449ZM16.4256 25.7918C16.4256 24.2226 17.2689 22.7742 18.6373 21.9923L31.6579 14.5351L44.6785 21.9923C46.0469 22.7742 46.8902 24.2279 46.8902 25.7918V29.2186L36.5214 23.278C36.4418 23.2308 36.3517 23.1993 36.2721 23.1573L31.6579 20.5439L27.1497 23.1048C27.033 23.1678 26.9058 23.2151 26.7891 23.278L16.4203 29.2186V25.7918H16.4256Z" fill="url(#paint0_linear_4544_191839)"/>
<path d="M35.1796 47.413L31.6632 49.4282L18.6426 41.9762C17.6349 41.399 16.9136 40.4648 16.6006 39.3838C14.7549 38.2975 12.9729 37.1534 11.281 35.9569C11.228 35.9202 11.1749 35.8782 11.1219 35.8415V39.0899C11.1219 39.0899 11.1643 39.1214 11.1855 39.1424C11.4985 42.2071 13.2699 44.978 15.9854 46.5366L22.1377 50.058L22.1642 50.0737L26.7997 52.7291C26.8315 52.7501 26.8686 52.7606 26.9058 52.7816L31.6685 55.5L36.3994 52.7974C36.4418 52.7711 36.4896 52.7554 36.5373 52.7291L42.6101 49.2498C40.1545 48.767 37.6776 48.1582 35.1902 47.413H35.1796Z" fill="url(#paint1_linear_4544_191839)"/>
<path d="M14.9618 16.5712C15.2111 16.5973 15.455 16.6285 15.7043 16.6598C15.4603 16.6285 15.2111 16.5973 14.9618 16.5712Z" fill="black"/>
<path d="M8.58673 17.3846C8.74054 17.3846 8.89435 17.3846 9.04285 17.3947C8.88904 17.3896 8.73524 17.3896 8.58673 17.3846Z" fill="black"/>
<path d="M1.08728 20.78C1.08728 20.9428 1.10816 21.1056 1.13427 21.2684C1.10816 21.1056 1.0925 20.9428 1.08728 20.78Z" fill="black"/>
<path d="M56.3679 46.7044C56.6331 46.7044 56.8983 46.7044 57.1635 46.6888C56.8983 46.6992 56.6331 46.7044 56.3679 46.7044Z" fill="black"/>
<path d="M16.0331 16.7024C16.3885 16.7493 16.7438 16.7962 17.0939 16.8483C16.7385 16.7962 16.3832 16.7493 16.0331 16.7024Z" fill="black"/>
<path d="M14.3572 31.0449C15.6725 31.7534 17.0355 32.4303 18.3137 33.0548C18.6797 33.2333 19.0509 33.4064 19.4222 33.5796L31.6579 26.5737L44.6785 34.0309C46.0469 34.8129 46.8902 36.2665 46.8902 37.8304V38.1715C46.8902 39.7406 46.0469 41.189 44.6785 41.971L43.2943 42.7634C44.5884 43.1465 45.9673 43.5138 47.5054 43.8864C48.3487 44.0859 49.139 44.2538 49.8921 44.4007C51.3559 42.6794 52.1992 40.4753 52.1992 38.1663V25.7813C52.1992 22.3439 50.3323 19.1375 47.3304 17.4161L36.5214 11.2236C36.4418 11.1764 36.3517 11.1449 36.2721 11.1029L31.6632 8.5L27.155 11.061C27.0383 11.1239 26.9111 11.1712 26.7944 11.2341L15.9854 17.4266C12.9835 19.1479 11.1166 22.3492 11.1166 25.7918V29.1871C12.1084 29.7959 13.1797 30.4151 14.3572 31.0449ZM16.4256 25.7918C16.4256 24.2226 17.2689 22.7742 18.6373 21.9923L31.6579 14.5351L44.6785 21.9923C46.0469 22.7742 46.8902 24.2279 46.8902 25.7918V29.2186L36.5214 23.278C36.4418 23.2308 36.3517 23.1993 36.2721 23.1573L31.6579 20.5439L27.1497 23.1048C27.033 23.1678 26.9058 23.2151 26.7891 23.278L16.4203 29.2186V25.7918H16.4256Z" fill="url(#paint2_linear_4544_191839)"/>
<path d="M31.6632 20.5439L28.778 22.1812L31.6632 20.5439L36.2775 23.1573L31.6632 20.5439Z" fill="url(#paint3_linear_4544_191839)"/>
<path d="M15.9854 17.4319C15.6142 17.6418 15.2641 17.878 14.93 18.1351C15.2641 17.878 15.6142 17.6471 15.9854 17.4319Z" fill="url(#paint4_linear_4544_191839)"/>
<path d="M63.3954 41.2625C63.04 40.5121 62.6157 39.8089 62.1384 39.1686C61.189 37.8724 60.0806 36.7493 58.935 35.684C57.3067 34.1884 55.5777 32.8239 53.785 31.5539V34.1726C55.1375 35.0753 56.4528 36.0356 57.6939 37.0695C58.8236 38.0298 59.9108 39.0427 60.8125 40.171C61.2686 40.7272 61.6611 41.3202 61.9846 41.929C62.3028 42.5377 62.515 43.178 62.5362 43.7815C62.5892 45.02 61.4967 45.8177 60.2026 46.2218C59.5555 46.4264 58.8554 46.5629 58.1394 46.6258C57.4234 46.6993 56.6915 46.7098 55.9596 46.7046C54.1457 46.6626 52.3212 46.4422 50.5074 46.1221H50.502L49.5845 45.9489C49.5315 45.9384 49.4784 45.9279 49.4254 45.9174C49.3564 45.9016 49.2822 45.8911 49.2132 45.8754C48.9162 45.8124 48.6139 45.7495 48.3063 45.6865C48.2427 45.6707 48.179 45.6602 48.1101 45.6445C47.8078 45.5763 47.4948 45.508 47.1713 45.4293C47.1607 45.4293 47.1554 45.4293 47.1448 45.4241C47.1448 45.4241 47.1395 45.4241 47.1342 45.4241C46.4023 45.2457 45.7022 45.0672 45.0339 44.8888C45.0074 44.8835 44.9756 44.8731 44.9491 44.8678C44.2224 44.6736 43.5224 44.4795 42.8488 44.28H42.8276C42.8276 44.28 42.8116 44.2696 42.8063 44.2696C42.7904 44.2696 42.7692 44.2591 42.7533 44.2538L39.3271 43.241L39.3854 43.2095C39.0937 43.115 38.802 43.0258 38.5156 42.9261C35.6622 41.992 32.846 40.9424 30.0456 39.8508C27.2452 38.7593 24.482 37.5837 21.7294 36.3662C20.9868 36.0356 20.2496 35.6998 19.5124 35.3587L18.7646 35.0123C18.3986 34.8444 18.0327 34.6712 17.6614 34.4875C17.6508 34.4875 17.6455 34.4823 17.6349 34.477C17.6349 34.477 17.6349 34.477 17.6296 34.477C16.9772 34.1569 16.309 33.8263 15.6301 33.4852C15.6195 33.4852 15.6089 33.4747 15.5983 33.4694C14.9353 33.1336 14.2723 32.7924 13.6147 32.4408C13.2964 32.2729 12.9941 32.105 12.6918 31.937C12.5804 31.8741 12.4691 31.8111 12.3524 31.7481C12.1614 31.6432 11.9758 31.5329 11.7902 31.428C11.647 31.3493 11.5091 31.2653 11.3712 31.1813C11.2174 31.0921 11.0636 30.9977 10.9098 30.9084C10.7666 30.8192 10.6181 30.7353 10.4749 30.6461C10.4165 30.6093 10.3582 30.5778 10.2998 30.5411L9.55202 30.0793V30.0688C8.34277 29.2973 7.17065 28.4787 6.05687 27.5918C4.89535 26.6577 3.78687 25.6553 2.85872 24.5218C2.38669 23.9603 1.98891 23.3568 1.66008 22.7323C1.33125 22.1078 1.1191 21.4413 1.10319 20.7958C1.09258 20.1503 1.32595 19.5573 1.77146 19.0902C2.21167 18.6232 2.83751 18.2768 3.50578 18.0406C4.17935 17.7992 4.89535 17.6366 5.62726 17.5473C6.35918 17.4476 7.1017 17.4057 7.84952 17.3952C9.34517 17.3794 10.8514 17.5159 12.3418 17.7153C12.5433 17.7415 12.7396 17.773 12.9358 17.8045C13.4131 17.3427 13.9276 16.9176 14.4845 16.5398C12.2728 16.2984 10.0506 16.1724 7.8124 16.2669C7.03275 16.3141 6.2478 16.3666 5.46815 16.4978C4.68851 16.6185 3.90356 16.7917 3.13982 17.075C2.38139 17.3637 1.61765 17.7468 1.00242 18.3818C0.371278 18.9853 1.71517e-05 19.8984 1.71517e-05 20.78C-0.00528657 21.6617 0.259899 22.4751 0.594034 23.2098C0.938776 23.9498 1.36307 24.632 1.8245 25.2722C2.05256 25.5976 2.30183 25.902 2.5458 26.2116C2.80569 26.5055 3.04966 26.8151 3.31484 27.1037C3.58003 27.3924 3.83991 27.6863 4.1157 27.9591C4.38619 28.2425 4.66729 28.5154 4.94309 28.7883C6.05687 29.8799 7.2449 30.8927 8.45415 31.8688C9.6634 32.8449 10.9045 33.7843 12.1827 34.6764C14.7231 36.466 17.3803 38.0928 20.117 39.5674C22.8591 41.0316 25.6859 42.3331 28.5765 43.4719C34.3522 45.7547 40.3825 47.4655 46.5826 48.3419C49.6853 48.7617 52.8251 49.0084 56.0126 48.7985C56.8082 48.7355 57.609 48.6515 58.4046 48.4941C59.2001 48.3471 60.001 48.1425 60.7913 47.8276C61.5709 47.5075 62.3612 47.0719 62.9923 46.3739C63.6341 45.6865 63.9735 44.6999 63.9894 43.7867C64 42.8684 63.7348 42.0182 63.3901 41.2678L63.3954 41.2625Z" fill="url(#paint5_linear_4544_191839)"/>
</g>
<g clip-path="url(#clip1_4544_191839)">
<path d="M87.8475 40.8487L83.6214 43.0541L79.75 40.8487L78.9272 43.6116H72L79.7814 22.1834H87.8161L95.5975 43.6116H88.6703L87.8475 40.8487ZM81.3944 35.4515L83.6214 36.6767L86.2031 35.4515L83.7988 27.9016L81.3944 35.4515Z" fill="#BEBEBE"/>
<path d="M97.9018 37.7329C99.1033 38.6972 101.697 39.6933 103.405 39.6933C104.576 39.6933 104.924 39.3723 104.924 38.9545C104.924 38.4399 104.228 38.2475 102.773 38.0552C100.211 37.7023 96.2574 37.2195 96.2574 33.0108C96.2574 30.2161 98.6618 27.7104 103.091 27.7104C105.653 27.7104 107.931 28.513 109.702 29.7027L107.613 33.4617C106.664 32.6592 104.893 31.8554 103.122 31.8554C102.299 31.8554 101.698 32.0797 101.698 32.5305C101.698 32.9814 102.141 33.1726 103.66 33.398C106.222 33.784 110.366 34.3292 110.366 38.6665C110.366 41.7505 107.646 44 103.122 44C100.306 44 97.2696 43.0039 95.6252 41.623L97.903 37.7354V37.7329H97.9018Z" fill="#BEBEBE"/>
<path d="M111.16 29.612L116.806 29.5887L118.974 36.9622L121.917 28.0951L129.05 25.1705L122.012 43.6116H115.97L111.161 29.6108L111.16 29.612Z" fill="#BEBEBE"/>
<path d="M127.991 35.8374C127.991 31.5001 131.154 27.7092 136.564 27.7092C141.973 27.7092 145.168 31.5001 145.168 35.8374C145.168 40.1748 142.005 43.9975 136.564 43.9975C131.123 43.9975 127.991 40.1748 127.991 35.8374ZM139.316 35.8374C139.316 34.1344 138.335 32.8172 136.564 32.8172C134.793 32.8172 133.843 34.1344 133.843 35.8374C133.843 37.5405 134.824 38.8895 136.564 38.8895C138.303 38.8895 139.316 37.5724 139.316 35.8374Z" fill="#BEBEBE"/>
<path d="M147.286 29.4478L152.981 26.6678V29.862C153.93 28.7372 155.922 27.7092 157.663 27.7092V33.235C157.378 33.1382 156.904 33.0745 156.366 33.0745C155.164 33.0745 153.614 33.3955 152.981 34.1674V43.6128H147.286V29.4491V29.4478Z" fill="#BEBEBE"/>
<path d="M159.276 23.2444C159.276 21.4458 160.699 20 162.47 20C164.241 20 165.665 21.4458 165.665 23.2444C165.665 25.0431 164.241 26.4889 162.47 26.4889C160.699 26.4889 159.276 25.0431 159.276 23.2444ZM159.623 28.0952H165.318V43.6116H159.623V28.0952Z" fill="#BEBEBE"/>
<path d="M177.307 42.134C176.453 43.2257 174.586 43.9976 172.689 43.9976C170.411 43.9976 167.437 42.4231 167.437 38.8895C167.437 35.0337 170.411 34.1025 172.689 34.1025C174.682 34.1025 176.484 34.7458 177.307 35.8056V34.0388C177.307 32.9459 176.326 32.1115 174.46 32.1115C173.036 32.1115 171.423 32.6898 170.22 33.621L168.291 30.0556C170.347 28.3856 173.194 27.7104 175.503 27.7104C179.299 27.7104 183 29.0594 183 34.2324V43.6128H177.306V42.1352L177.307 42.134ZM177.307 38.5354C176.927 37.989 175.947 37.6998 175.061 37.6998C174.111 37.6998 173.068 38.0208 173.068 38.9851C173.068 39.9494 174.111 40.2385 175.061 40.2385C175.946 40.2385 176.927 39.9494 177.307 39.4029V38.5354Z" fill="#BEBEBE"/>
</g>
<defs>
<linearGradient id="paint0_linear_4544_191839" x1="11.1166" y1="8.5" x2="46.6935" y2="49.212" gradientUnits="userSpaceOnUse">
<stop stop-color="#01FEA8"/>
<stop offset="0.510417" stop-color="#46A5FF"/>
<stop offset="1" stop-color="#D632FF"/>
</linearGradient>
<linearGradient id="paint1_linear_4544_191839" x1="11.1219" y1="35.8415" x2="28.784" y2="64.1318" gradientUnits="userSpaceOnUse">
<stop stop-color="#01FEA8"/>
<stop offset="0.510417" stop-color="#46A5FF"/>
<stop offset="1" stop-color="#D632FF"/>
</linearGradient>
<linearGradient id="paint2_linear_4544_191839" x1="11.1166" y1="8.5" x2="46.6935" y2="49.212" gradientUnits="userSpaceOnUse">
<stop stop-color="#01FEA8"/>
<stop offset="0.510417" stop-color="#46A5FF"/>
<stop offset="1" stop-color="#D632FF"/>
</linearGradient>
<linearGradient id="paint3_linear_4544_191839" x1="31.4087" y1="20.5386" x2="33.5315" y2="24.6714" gradientUnits="userSpaceOnUse">
<stop stop-color="#BEBEBE"/>
<stop offset="0.48" stop-color="#03E1FF"/>
<stop offset="0.94" stop-color="#DC1FFF"/>
</linearGradient>
<linearGradient id="paint4_linear_4544_191839" x1="15.9218" y1="17.3899" x2="16.0157" y2="17.5744" gradientUnits="userSpaceOnUse">
<stop stop-color="#BEBEBE"/>
<stop offset="0.48" stop-color="#03E1FF"/>
<stop offset="0.94" stop-color="#DC1FFF"/>
</linearGradient>
<linearGradient id="paint5_linear_4544_191839" x1="-6.10352e-05" y1="16.2354" x2="26.4223" y2="68.0368" gradientUnits="userSpaceOnUse">
<stop stop-color="#01FEA8"/>
<stop offset="0.510417" stop-color="#46A5FF"/>
<stop offset="1" stop-color="#D632FF"/>
</linearGradient>
<clipPath id="clip0_4544_191839">
<rect width="64" height="47" fill="white" transform="translate(0 8.5)"/>
</clipPath>
<clipPath id="clip1_4544_191839">
<rect width="111" height="24" fill="white" transform="translate(72 20)"/>
</clipPath>
</defs>
</svg>
