<svg width="31" height="22" viewBox="0 0 31 22" fill="none" xmlns="http://www.w3.org/2000/svg">
<g clip-path="url(#clip0_4544_191598)">
<path d="M15.4833 21.5C12.9546 21.5 10.54 20.5096 8.68451 18.7112C6.83938 16.9228 5.70894 14.4977 5.50116 11.8822C5.493 11.78 5.52611 11.6789 5.59216 11.6034C5.65837 11.528 5.75153 11.485 5.84919 11.485H18.278V10.515H5.84935C5.7517 10.515 5.65837 10.472 5.59232 10.3966C5.52611 10.3211 5.49317 10.22 5.50132 10.1178C5.70894 7.50245 6.83955 5.07717 8.68451 3.28896C10.54 1.49044 12.9544 0.5 15.4833 0.5C16.8353 0.5 18.1471 0.777568 19.3822 1.32519C20.575 1.85395 21.6462 2.61102 22.566 3.57509C23.4858 4.53933 24.2082 5.66218 24.7126 6.91255C25.2351 8.20728 25.5 9.58255 25.5 10.9999C25.5 12.4173 25.2351 13.7925 24.7126 15.0875C24.208 16.3378 23.4858 17.4607 22.566 18.4249C21.6462 19.389 20.575 20.146 19.3822 20.6748C18.1471 21.2224 16.8353 21.5 15.4833 21.5ZM6.23681 12.2187C6.50749 14.4981 7.53594 16.5997 9.15831 18.1721C10.8843 19.8451 13.1306 20.7663 15.4831 20.7663C16.7413 20.7663 17.9616 20.5082 19.1102 19.999C20.2198 19.5071 21.2163 18.8027 22.0721 17.9058C22.9279 17.0088 23.5998 15.9642 24.0691 14.8013C24.5549 13.5976 24.8011 12.3186 24.8011 11.0001C24.8011 9.68159 24.5549 8.40258 24.0691 7.19885C23.5998 6.036 22.928 4.9914 22.0721 4.09442C21.2163 3.19743 20.2196 2.49311 19.1102 2.00121C17.9616 1.49201 16.7411 1.23384 15.4831 1.23384C13.1306 1.23384 10.8843 2.1551 9.15831 3.82803C7.53594 5.40051 6.50749 7.50192 6.23681 9.78151H18.6274C18.8203 9.78151 18.9767 9.94571 18.9767 10.1483V11.852C18.9767 12.0546 18.8203 12.2188 18.6274 12.2188H6.23681V12.2187Z" fill="#46A5FF"/>
</g>
<defs>
<clipPath id="clip0_4544_191598">
<rect width="20" height="21" fill="white" transform="translate(5.5 0.5)"/>
</clipPath>
</defs>
</svg>
