<svg width="31" height="25" viewBox="0 0 31 25" fill="none" xmlns="http://www.w3.org/2000/svg">
<path d="M15.498 16.8361C15.3828 16.8361 15.2689 16.7942 15.1832 16.7136L15.0182 16.5586C14.9345 16.48 14.8876 16.3732 14.8876 16.262V0.94706C14.8876 0.906934 14.8938 0.867206 14.9056 0.828677L15.0706 0.300845C15.1205 0.141337 15.2658 0.0245513 15.4409 0.00339014C15.6161 -0.0177711 15.7881 0.0602858 15.8793 0.202825L23.4317 11.9984C23.493 12.0942 23.5112 12.209 23.4822 12.3174C23.4531 12.4258 23.3793 12.5188 23.2769 12.5757L15.7245 16.7778C15.6541 16.817 15.5758 16.8361 15.498 16.8361ZM15.7782 1.66934V15.7739L22.4368 12.0691L15.7782 1.66934Z" fill="#01FEA8"/>
<path d="M15.4976 16.8361C15.4192 16.8361 15.3409 16.8167 15.2709 16.7778L7.71851 12.5757C7.61629 12.5188 7.54248 12.4258 7.51321 12.3174C7.48416 12.209 7.50218 12.0942 7.56369 11.9984L15.1161 0.202807C15.2194 0.0415023 15.424 -0.0351572 15.6168 0.0153502C15.8096 0.0658576 15.9428 0.230955 15.9428 0.41921V16.4169C15.9428 16.5674 15.8571 16.7064 15.7182 16.781C15.6497 16.8177 15.5736 16.8361 15.4974 16.8361H15.4976ZM8.55859 12.0691L15.0522 15.6822V1.92705L8.55859 12.0691Z" fill="#01FEA8"/>
<path d="M15.4978 24.3564C15.4766 24.3564 15.4551 24.355 15.4339 24.352C15.2685 24.3294 15.1304 24.2216 15.0764 24.0729L14.9835 23.8174C14.9676 23.7737 14.9595 23.7277 14.9595 23.6816V18.2262C14.9595 18.1292 14.9951 18.0354 15.0605 17.9603L15.1533 17.8537C15.1864 17.8158 15.2263 17.7836 15.2713 17.7587L22.8281 13.5588C23.009 13.4582 23.2402 13.4903 23.3825 13.636C23.5248 13.7818 23.5395 14.0012 23.4177 14.1625L15.8609 24.1803C15.7767 24.2919 15.6407 24.3568 15.4978 24.3568V24.3564ZM15.8503 18.4103V22.7457L21.4818 15.2804L15.8503 18.4103Z" fill="#01FEA8"/>
<path d="M15.4978 24.3562C15.3561 24.3562 15.2197 24.2925 15.1345 24.1795L7.58207 14.1619C7.46033 14.0006 7.47518 13.781 7.61749 13.6354C7.7598 13.4899 7.99097 13.4576 8.17188 13.5584L15.7243 17.7583C15.8598 17.8337 15.9432 17.9709 15.9432 18.1192V23.937C15.9432 24.1194 15.8178 24.2809 15.6331 24.3364C15.5885 24.3498 15.5429 24.3562 15.4978 24.3562ZM9.518 15.2806L15.0526 22.6218V18.3584L9.518 15.2806Z" fill="#01FEA8"/>
<path d="M15.4978 16.8361C15.4216 16.8361 15.3455 16.8178 15.277 16.781C15.1381 16.7064 15.0524 16.5674 15.0524 16.4169V8.98372C15.0524 8.84119 15.1294 8.70843 15.2566 8.63117C15.3839 8.55411 15.5442 8.54293 15.6821 8.60202L23.2343 11.8333C23.3855 11.898 23.4858 12.0363 23.4947 12.1924C23.5036 12.3486 23.4196 12.4963 23.2767 12.5757L15.7245 16.7778C15.6547 16.8168 15.5762 16.8361 15.4978 16.8361ZM15.9432 9.63473V15.682L22.0875 12.2635L15.9432 9.63473Z" fill="#01FEA8"/>
<path d="M15.4978 16.8361C15.4193 16.8361 15.341 16.8168 15.2711 16.7778L7.71887 12.5757C7.57593 12.4963 7.49194 12.3484 7.50085 12.1924C7.50975 12.0363 7.61007 11.898 7.76129 11.8333L15.3135 8.60202C15.4513 8.54293 15.6117 8.55411 15.7389 8.63117C15.8662 8.70823 15.9432 8.84119 15.9432 8.98372V16.4169C15.9432 16.5674 15.8575 16.7064 15.7186 16.781C15.6501 16.8178 15.5739 16.8361 15.4978 16.8361ZM8.90804 12.2635L15.0522 15.682V9.63473L8.90804 12.2635Z" fill="#01FEA8"/>
</svg>
