<svg width="31" height="20" viewBox="0 0 31 20" fill="none" xmlns="http://www.w3.org/2000/svg">
<g clip-path="url(#clip0_4544_191565)">
<path d="M23.2103 19.7913H4.68276C4.20374 19.7913 3.77588 19.5075 3.59266 19.0683C3.4086 18.627 3.50377 18.1411 3.84108 17.8004L6.87994 14.7307C7.10152 14.5079 7.40759 14.3806 7.72078 14.3806H26.3172C26.7992 14.3806 27.2281 14.6668 27.4099 15.1097C27.5925 15.5548 27.4929 16.0418 27.1495 16.3808L24.0417 19.4502C24.0417 19.4502 24.0415 19.4504 24.0412 19.4506C23.8182 19.6701 23.5232 19.7911 23.2103 19.7911V19.7913ZM7.72141 15.2609C7.64049 15.2609 7.56188 15.2936 7.50507 15.3506L4.46684 18.4197C4.34567 18.5421 4.3834 18.6769 4.4052 18.7291C4.42805 18.7836 4.50059 18.9106 4.68276 18.9106H23.2098C23.2905 18.9106 23.3662 18.8796 23.4235 18.8232L26.5309 15.7542C26.6541 15.6324 26.6172 15.4965 26.5954 15.4439C26.5778 15.4009 26.5057 15.2609 26.3172 15.2609H7.72141ZM7.72036 12.7052C7.40759 12.7052 7.10131 12.5778 6.88057 12.3558L3.84108 9.28567C3.50377 8.94481 3.40839 8.45908 3.59266 8.0178C3.77588 7.57862 4.20374 7.29477 4.68276 7.29477H23.2111C23.5232 7.29477 23.8182 7.41552 24.0412 7.63501C24.0412 7.63501 24.0417 7.63543 24.0419 7.63564L27.1497 10.7053C27.4929 11.0443 27.5929 11.5313 27.4101 11.9761C27.2283 12.4191 26.7994 12.7052 26.3175 12.7052H7.72036ZM4.68276 8.17503C4.50059 8.17503 4.42805 8.30207 4.4052 8.35657C4.3834 8.40877 4.34567 8.54378 4.46684 8.66599L7.5057 11.7355C7.56167 11.7919 7.64028 11.8246 7.72078 11.8246H26.3175C26.5059 11.8246 26.578 11.6845 26.5956 11.6415C26.6172 11.5889 26.6543 11.4531 26.5311 11.3315L23.4237 8.26203C23.3664 8.20585 23.2908 8.17482 23.2107 8.17482H4.68276V8.17503ZM23.21 5.73572H4.68276C4.2027 5.73572 3.78699 5.45942 3.59832 5.01458C3.40734 4.5647 3.49895 4.06745 3.8373 3.71694L6.87616 0.568652C7.09565 0.34057 7.40361 0.209129 7.72057 0.20871H26.3172C26.8002 0.20871 27.2168 0.487314 27.4044 0.935932C27.5912 1.38266 27.4927 1.89333 27.1535 2.23692L24.0461 5.38438C23.827 5.60701 23.5222 5.73509 23.2098 5.73551L23.21 5.73572ZM7.72141 1.08917C7.64259 1.08917 7.56544 1.1223 7.5101 1.17953L4.47082 4.32824C4.33728 4.4666 4.38948 4.62508 4.40877 4.67036C4.43246 4.72591 4.50625 4.85505 4.68297 4.85505H23.2096C23.2874 4.85505 23.3637 4.82276 23.4186 4.767C23.4186 4.767 23.4191 4.76658 23.4193 4.76637L26.5271 1.61829C26.6629 1.48056 26.6114 1.32103 26.5923 1.27533C26.5688 1.21936 26.4952 1.08896 26.3175 1.08896H7.72141V1.08917Z" fill="#D432FE"/>
</g>
<defs>
<clipPath id="clip0_4544_191565">
<rect width="24" height="19.5826" fill="white" transform="translate(3.5 0.20871)"/>
</clipPath>
</defs>
</svg>
