<svg width="31" height="24" viewBox="0 0 31 24" fill="none" xmlns="http://www.w3.org/2000/svg">
<path d="M5.17879 6.749L5.17879 6.74901L13.9312 21.9194C14.6274 23.1269 16.3717 23.1269 17.0679 21.9194L25.8221 6.74903C27.2588 4.25951 25.4451 1.175 22.5923 1.175H22.5905H8.40869C5.5542 1.175 3.74044 4.25574 5.17879 6.749ZM8.40691 4.41643H13.8789V15.8672L12.5882 13.3694L12.5884 13.3693L12.5832 13.36L7.98386 5.13401L7.98388 5.134L7.98178 5.13035C7.80278 4.81974 8.02249 4.41643 8.40691 4.41643ZM23.0138 5.12857L23.0138 5.12855L23.0117 5.13233L18.4141 13.3619L18.414 13.3618L18.4092 13.3711L17.1167 15.8712V4.41465H22.5887C22.9731 4.41465 23.1928 4.81796 23.0138 5.12857Z" stroke="#00E0FF" stroke-width="0.65"/>
</svg>
